<?xml version="1.0" standalone="no"?>
<!DOCTYPE svg PUBLIC "-//W3C//DTD SVG 20010904//EN"
 "http://www.w3.org/TR/2001/REC-SVG-20010904/DTD/svg10.dtd">
<svg version="1.0" xmlns="http://www.w3.org/2000/svg"
 width="698.000000pt" height="960.000000pt" viewBox="0 0 698.000000 960.000000"
 preserveAspectRatio="xMidYMid meet">
<metadata>
Created by potrace 1.16, written by Peter Selinger 2001-2019
</metadata>
<g transform="translate(0.000000,960.000000) scale(0.100000,-0.100000)"
fill="#000000" stroke="none">
<path d="M441 9498 c0 -57 4 -112 9 -123 7 -16 9 -14 9 15 1 26 4 31 11 20 8
-12 10 -11 10 8 0 15 6 22 20 22 12 0 25 10 32 24 12 28 25 35 81 46 36 7 37
7 38 -24 1 -17 2 -40 3 -51 1 -15 8 -20 28 -20 34 -1 47 -13 28 -26 -12 -8
-10 -9 7 -4 15 4 29 -1 42 -14 18 -18 20 -32 19 -123 -1 -63 -6 -112 -15 -127
-17 -34 -17 -51 2 -51 8 0 15 -4 15 -10 0 -5 -8 -10 -17 -10 -12 0 -14 -3 -6
-8 12 -7 11 -82 -2 -122 -4 -12 0 -22 11 -28 12 -7 14 -14 6 -28 -6 -12 -7
-52 -1 -114 5 -52 7 -107 3 -122 -3 -18 -1 -28 6 -28 6 0 8 -5 5 -10 -4 -6 -2
-16 3 -23 5 -7 10 -30 12 -52 5 -98 13 -142 36 -214 8 -24 13 -50 10 -57 -3
-7 -1 -16 3 -18 5 -3 11 -24 15 -46 3 -22 10 -40 16 -40 5 0 7 -13 5 -30 -2
-16 0 -32 5 -35 4 -3 11 -24 15 -47 4 -23 16 -67 27 -97 11 -31 21 -63 22 -71
2 -14 28 -76 47 -112 5 -10 9 -26 9 -36 0 -10 7 -27 15 -38 8 -10 15 -26 15
-34 0 -20 43 -124 53 -128 4 -2 7 -9 7 -15 1 -7 9 -30 20 -52 11 -22 19 -45
20 -51 0 -6 7 -17 15 -24 8 -7 15 -23 15 -35 0 -13 7 -25 15 -29 8 -3 14 -9
14 -13 -3 -13 13 -46 40 -83 14 -19 26 -37 26 -40 0 -3 37 -79 81 -170 45 -91
88 -181 97 -200 31 -72 77 -212 71 -221 -3 -5 0 -9 5 -9 6 0 11 -14 11 -32 0
-17 8 -40 18 -51 9 -11 11 -17 5 -13 -16 9 -17 -16 -2 -31 5 -5 11 -26 11 -44
0 -19 7 -47 15 -63 12 -24 13 -30 1 -37 -11 -7 -11 -9 1 -9 9 0 12 -9 9 -30
-3 -16 -1 -30 3 -30 4 0 8 -8 9 -17 0 -10 3 -49 5 -88 2 -38 6 -77 9 -85 6
-15 -8 -202 -18 -250 -3 -14 -10 -47 -16 -74 -5 -27 -17 -57 -25 -66 -8 -9
-15 -22 -15 -29 0 -6 -27 -39 -60 -73 -33 -33 -60 -67 -60 -75 0 -20 -30 -63
-45 -63 -11 0 -25 -20 -24 -36 0 -8 -47 -44 -58 -44 -5 0 -22 -13 -37 -29 -15
-16 -52 -46 -81 -67 -32 -22 -53 -45 -50 -52 3 -7 0 -10 -5 -7 -6 3 -13 -1
-16 -9 -6 -16 -58 -46 -80 -46 -7 0 -14 -4 -16 -10 -1 -5 -15 -11 -30 -12 -15
-1 -24 -6 -22 -10 3 -5 -3 -11 -13 -15 -10 -4 -20 -9 -23 -13 -3 -3 -25 -14
-50 -25 -25 -10 -53 -25 -62 -33 -9 -8 -21 -11 -27 -7 -6 3 -22 -6 -37 -20
-14 -14 -30 -23 -35 -20 -5 4 -12 -1 -15 -9 -3 -8 -18 -15 -32 -15 -15 0 -48
-1 -74 -3 -28 -2 -48 1 -47 7 0 6 7 9 15 7 17 -4 19 14 2 21 -10 4 -10 6 0 6
16 1 42 26 42 40 0 6 10 11 23 11 18 0 19 2 7 10 -8 5 -12 10 -7 11 19 4 23 6
45 18 34 18 21 24 -14 6 -16 -8 -32 -15 -36 -15 -9 0 -115 -46 -148 -65 l-25
-14 0 -2373 c0 -1305 4 -2382 8 -2393 7 -16 10 -17 17 -5 7 12 10 12 10 2 0
-11 16 -12 73 -8 39 3 86 9 102 12 17 3 84 8 150 10 211 7 335 16 335 25 0 5
12 9 26 9 14 0 34 5 45 11 11 5 42 11 68 11 37 1 48 5 44 15 -3 7 0 13 6 13 7
0 14 -6 17 -14 3 -8 21 -13 45 -13 30 0 39 3 35 13 -3 8 -1 14 4 14 6 0 10 -4
10 -9 0 -5 17 -12 38 -15 20 -3 48 -9 62 -12 14 -3 88 -7 165 -8 77 -1 148 -5
157 -10 9 -4 22 -5 28 -1 5 3 10 1 10 -6 0 -10 3 -10 12 -1 7 7 35 12 64 12
32 0 55 5 58 13 5 9 7 9 12 0 3 -8 25 -13 54 -13 27 0 52 -5 55 -10 8 -14 42
-13 68 2 26 14 97 18 97 5 0 -5 7 -7 15 -3 8 3 21 -4 30 -16 13 -20 13 -24 -7
-45 -17 -18 -32 -23 -74 -23 -29 0 -54 5 -56 11 -3 8 -14 8 -38 2 -19 -5 -64
-8 -100 -6 -108 6 -229 5 -360 -3 -69 -4 -249 -8 -400 -9 -386 -2 -841 -16
-867 -26 -18 -7 -23 -16 -23 -42 l0 -34 -112 -6 c-62 -3 -161 -4 -221 -4 -105
2 -107 2 -107 -20 l0 -23 3490 0 3490 0 0 4800 0 4800 -3270 0 -3270 0 1 -102z
m5706 61 c21 -8 61 -62 76 -101 5 -13 -6 -26 -41 -50 -58 -41 -78 -53 -119
-72 -18 -8 -33 -20 -33 -26 0 -6 4 -9 9 -5 17 10 120 -7 125 -21 3 -8 -1 -14
-10 -14 -8 0 -12 5 -9 10 7 12 -2 12 -30 0 -18 -8 -18 -9 -2 -9 10 -1 15 -6
12 -11 -4 -6 -15 -8 -26 -5 -10 4 -19 3 -19 -2 0 -13 -55 -43 -77 -43 -10 0
-24 -5 -31 -12 -6 -6 -20 -13 -29 -14 -9 -2 -27 -8 -40 -13 -54 -26 -71 -31
-133 -42 -64 -12 -114 -31 -124 -48 -3 -4 13 -5 37 -1 26 5 44 4 48 -2 4 -6
12 -7 18 -4 6 4 11 0 11 -9 0 -12 7 -14 28 -9 46 10 53 14 47 24 -3 6 1 7 9 4
9 -3 16 -2 16 4 0 11 56 28 79 23 7 -1 10 2 7 7 -5 9 34 26 42 18 2 -2 -9 -17
-23 -32 -29 -31 -60 -84 -57 -96 1 -5 -2 -8 -8 -8 -5 0 -10 -7 -10 -15 0 -8 5
-15 10 -15 6 0 10 6 10 14 0 25 183 214 216 222 16 4 34 -3 61 -24 37 -29 112
-55 99 -34 -3 5 -18 12 -33 15 -16 4 -45 22 -65 41 l-37 34 60 36 c32 19 66
33 74 30 10 -4 15 0 15 11 0 11 5 15 14 12 8 -3 17 1 20 10 5 11 10 12 19 5
17 -15 75 -24 98 -17 10 4 19 13 19 22 0 11 -7 14 -27 9 -27 -6 -27 -6 -8 9
11 9 25 13 32 11 7 -3 13 -1 13 4 0 6 11 10 24 10 14 0 27 4 30 9 14 22 110
28 134 9 8 -7 16 -7 25 -1 21 17 75 23 107 11 17 -5 29 -13 25 -16 -3 -3 1
-12 8 -21 24 -29 35 -65 26 -89 -6 -17 -5 -24 6 -28 8 -4 15 -14 15 -24 0 -11
4 -21 8 -24 4 -2 4 -42 -2 -87 -6 -56 -6 -91 2 -111 5 -15 7 -40 3 -56 -6 -21
-15 -28 -41 -32 l-33 -5 35 -13 35 -12 -1 -84 c-1 -47 -4 -88 -8 -91 -4 -4 -3
-17 3 -28 12 -21 0 -18 -34 11 -9 8 -19 13 -22 10 -9 -9 7 -38 21 -38 8 0 14
-9 14 -20 0 -11 -4 -20 -8 -20 -5 0 -9 -29 -9 -65 0 -49 3 -65 13 -65 21 0 17
-30 -3 -31 -17 -1 -17 -2 0 -6 22 -6 24 -63 2 -63 -16 0 -21 -35 -6 -44 23
-15 13 -126 -11 -126 -4 0 -5 -7 -1 -16 5 -13 7 -13 14 -2 5 7 6 -6 3 -32 -3
-24 -9 -47 -14 -50 -14 -9 -17 -75 -2 -72 6 1 12 -2 12 -8 0 -5 -4 -10 -10
-10 -5 0 -10 -9 -10 -20 0 -11 -7 -23 -16 -27 -13 -5 -13 -8 -2 -15 10 -7 10
-11 1 -15 -8 -3 -11 -14 -7 -30 5 -18 3 -24 -5 -19 -7 5 -11 0 -11 -13 0 -11
-4 -23 -10 -26 -5 -3 -10 -1 -10 4 0 6 -5 11 -11 11 -6 0 -8 -9 -4 -21 17 -53
12 -78 -10 -59 -8 7 -18 9 -23 7 -4 -3 -14 -2 -22 4 -12 7 -12 9 -1 9 10 0 11
3 2 14 -6 7 -9 21 -5 30 6 16 -3 20 -39 16 -10 -1 -25 4 -33 11 -12 10 -13 9
-7 -7 3 -10 11 -22 17 -26 6 -4 7 -10 4 -13 -4 -4 -17 2 -29 14 -12 11 -25 18
-28 15 -3 -4 0 -9 7 -11 18 -7 15 -33 -8 -71 -11 -18 -20 -38 -19 -45 0 -9 2
-9 6 1 2 6 12 12 20 12 9 0 13 -6 10 -14 -3 -8 0 -20 8 -26 10 -8 11 -17 2
-40 -6 -17 -17 -30 -24 -30 -12 0 -18 -24 -15 -63 1 -12 -6 -21 -19 -24 -14
-4 -19 -12 -16 -24 3 -11 0 -19 -6 -19 -7 0 -20 -12 -30 -25 -18 -25 -18 -25
5 -26 l23 0 -22 -11 c-13 -6 -23 -15 -23 -20 0 -4 10 -9 23 -9 20 -1 20 -2 2
-6 -29 -7 -33 -18 -25 -69 5 -35 4 -47 -8 -53 -8 -5 -12 -15 -9 -24 3 -8 -1
-24 -10 -36 -11 -17 -12 -25 -3 -36 10 -12 7 -17 -16 -27 -34 -15 -56 -40 -43
-49 10 -6 -1 -31 -35 -81 -10 -15 -15 -32 -12 -37 4 -5 -2 -14 -11 -20 -16 -9
-16 -12 -3 -21 13 -9 7 -14 -12 -11 -4 0 -11 -11 -14 -27 -4 -15 -11 -32 -16
-39 -5 -7 -7 -16 -4 -22 4 -5 -2 -17 -11 -27 -13 -12 -14 -19 -5 -22 20 -6 14
-22 -9 -22 -11 0 -17 -4 -14 -10 3 -5 1 -10 -5 -10 -6 0 -8 -5 -5 -10 3 -6 17
-7 31 -4 29 7 33 -12 5 -21 -11 -3 -23 -16 -27 -28 -3 -12 -13 -30 -21 -39
-14 -16 -13 -18 10 -29 15 -7 24 -16 21 -21 -3 -4 -10 -5 -16 -2 -6 4 -8 -1
-6 -12 2 -12 12 -19 25 -19 12 0 25 -3 29 -7 12 -13 -35 -9 -56 4 -10 7 -23 8
-27 4 -4 -5 -2 -11 5 -13 6 -3 10 -9 6 -14 -3 -5 -22 7 -42 26 -36 33 -59 31
-29 -3 20 -24 64 -102 72 -132 7 -22 6 -23 -9 -11 -9 7 -16 21 -16 29 0 12 -3
13 -11 5 -9 -9 -16 -6 -30 10 -9 12 -21 19 -25 14 -4 -4 1 -16 12 -27 34 -34
44 -49 44 -65 0 -9 -4 -13 -10 -10 -5 3 -11 -2 -11 -12 -1 -17 -2 -17 -6 0 -2
9 -9 15 -14 12 -12 -8 -34 42 -37 88 -1 9 -9 17 -18 17 -10 0 -14 6 -10 15 3
8 1 15 -4 15 -6 0 -10 11 -10 25 0 14 -7 28 -15 31 -8 4 -15 13 -15 22 0 11
-3 13 -10 6 -12 -12 -6 -30 36 -119 28 -61 80 -233 89 -297 5 -36 1 -63 -16
-110 -12 -35 -23 -63 -23 -64 -1 -1 -32 3 -71 8 -65 8 -201 17 -286 18 -22 0
-43 8 -55 20 -10 12 -29 30 -41 42 -12 11 -25 33 -28 49 -3 15 -13 30 -21 33
-8 3 -14 13 -14 23 0 9 -9 35 -19 57 -10 23 -26 64 -34 91 -8 28 -21 70 -28
95 -7 25 -17 48 -22 51 -5 3 -10 17 -12 30 -2 13 -9 46 -14 72 -17 76 -21 173
-11 230 5 29 11 65 13 81 4 33 17 37 157 39 68 2 96 -3 140 -20 30 -13 71 -25
90 -26 29 -3 37 -9 45 -36 5 -19 14 -30 22 -27 7 3 15 1 18 -4 11 -18 23 -10
18 10 -3 11 -9 20 -13 20 -4 0 -10 8 -14 18 -3 9 -16 35 -29 57 -30 54 -49
118 -54 190 -2 33 -5 83 -7 110 -8 105 -16 160 -26 163 -5 2 -10 10 -10 18 0
8 -10 14 -22 15 -13 0 -17 3 -10 6 29 11 8 22 -53 25 -36 1 -65 0 -65 -4 0 -5
5 -8 10 -8 6 0 10 -9 10 -20 0 -11 6 -20 12 -20 7 0 2 -7 -11 -16 -18 -13 -28
-14 -48 -5 -26 12 -63 52 -74 80 -3 8 -8 10 -12 5 -11 -19 163 -306 236 -386
26 -29 47 -57 47 -62 0 -5 6 -17 13 -25 7 -9 19 -29 25 -44 12 -27 11 -28 -10
-21 -13 3 -29 12 -37 18 -22 17 -136 34 -237 35 l-92 1 -26 35 c-36 47 -77
127 -85 166 -4 18 -11 34 -17 36 -13 4 -1 -94 14 -124 6 -11 9 -34 7 -51 -2
-18 0 -32 5 -32 6 0 10 -4 10 -10 0 -5 -7 -10 -15 -10 -8 0 -23 -9 -32 -20
-10 -11 -23 -20 -30 -20 -7 0 -13 -7 -13 -15 0 -8 -6 -15 -13 -15 -9 0 -11
-22 -6 -97 4 -54 3 -107 -2 -118 l-8 -20 -1 20 c-1 11 -3 34 -5 50 -5 62 -37
295 -43 319 -4 14 -6 -56 -4 -157 5 -298 -40 -458 -132 -465 -49 -4 -126 33
-188 90 -45 41 -143 191 -154 233 -3 12 17 66 51 137 107 225 187 490 275 903
12 55 30 134 40 175 17 72 19 74 29 47 6 -16 11 -36 12 -45 0 -11 2 -13 6 -4
4 10 8 10 19 1 11 -9 14 -7 14 14 0 14 7 28 16 31 17 7 10 27 -9 23 -7 -2 3 3
21 11 17 8 32 19 32 23 0 5 7 9 15 9 8 0 15 7 15 15 0 8 6 15 13 15 7 0 20 9
30 20 9 11 24 20 32 20 9 0 14 4 11 9 -8 12 74 25 85 14 6 -6 0 -24 -16 -47
-33 -48 -26 -57 10 -14 15 18 47 54 71 80 24 26 44 49 44 53 0 17 61 68 91 75
31 7 32 9 12 15 -27 9 -27 8 -8 45 22 43 2 44 -24 1 -13 -20 -31 -42 -41 -47
-10 -5 -31 -17 -47 -26 -35 -20 -80 -14 -62 8 6 7 17 10 25 7 12 -4 14 4 10
41 -3 25 -1 44 3 41 12 -7 32 42 25 60 -4 8 -1 15 6 15 6 0 10 8 9 18 -4 40 2
62 16 62 8 0 15 7 15 15 0 8 5 15 12 15 6 0 27 12 47 27 20 16 39 28 43 28 4
0 26 17 48 38 33 30 45 36 56 26 11 -9 14 -8 14 4 0 8 6 17 14 20 7 3 15 19
18 35 l4 29 -34 -33 c-19 -19 -40 -34 -46 -34 -6 0 -28 -11 -48 -25 -20 -14
-44 -25 -52 -25 -9 0 -16 -4 -16 -10 0 -5 -6 -10 -13 -10 -15 0 -22 86 -7 95
6 3 10 19 10 35 0 15 6 30 13 33 16 6 21 97 6 97 -5 0 -9 -9 -9 -20 0 -22 -15
-27 -23 -7 -4 7 -6 6 -6 -5 -1 -16 -70 -78 -89 -78 -5 0 -20 -20 -33 -45 -13
-25 -30 -45 -36 -45 -7 0 -13 -7 -13 -15 0 -16 -8 -27 -42 -66 -10 -10 -18
-23 -18 -29 0 -5 -4 -10 -10 -10 -5 0 -10 -6 -10 -13 0 -16 -54 -37 -80 -30
-11 3 -27 0 -35 -7 -13 -11 -18 -10 -31 9 -9 12 -20 19 -25 16 -5 -4 -9 -1 -9
6 0 6 -18 33 -40 59 -22 26 -40 51 -40 54 0 4 -15 23 -32 42 -18 20 -41 55
-50 77 -22 54 -22 32 -2 -63 9 -41 18 -82 19 -90 2 -13 17 -87 20 -100 1 -3 4
-12 7 -20 4 -8 14 -45 24 -82 14 -58 19 -66 32 -56 11 10 17 9 28 -7 8 -10 14
-23 14 -28 0 -18 37 37 64 95 29 60 39 68 92 68 29 0 34 -3 34 -25 0 -13 -11
-40 -24 -60 -13 -19 -48 -84 -78 -145 -43 -90 -58 -111 -82 -120 -29 -10 -29
-10 -10 -31 19 -22 19 -22 -6 -15 -23 7 -24 6 -7 -8 10 -8 14 -17 9 -20 -16
-10 -44 32 -47 71 -1 21 -7 65 -13 98 -6 33 -13 81 -16 107 -2 26 -10 56 -16
67 -5 11 -9 26 -8 33 3 11 -2 14 -37 17 -11 1 -13 9 -8 31 4 20 0 36 -9 48 -9
9 -19 31 -23 47 -6 27 -8 43 -13 108 -1 11 -7 15 -13 11 -9 -5 -10 1 -5 20 5
19 2 28 -8 32 -8 3 -12 12 -10 19 3 7 1 15 -4 19 -4 3 -7 28 -4 56 3 40 0 51
-13 56 -13 5 -14 8 -3 15 9 6 7 9 -9 9 -26 0 -41 19 -23 30 9 5 9 9 1 14 -6 4
-11 23 -11 42 0 19 -4 34 -9 34 -11 0 -18 47 -24 155 -3 45 -1 63 4 50 6 -13
7 -5 3 25 -5 42 -4 43 8 20 8 -14 20 -45 27 -68 19 -65 22 -46 5 27 -14 63
-11 107 7 95 5 -3 42 0 82 6 73 11 201 23 270 24 20 1 37 4 37 8 0 12 133 7
148 -4 7 -6 12 -7 12 -1 0 8 201 31 330 38 19 0 42 4 50 7 31 13 48 14 174 15
72 1 140 -3 153 -8z m-4330 -115 c4 -10 16 -14 39 -12 18 1 39 -3 46 -10 6 -6
19 -12 27 -12 8 0 22 -7 32 -16 9 -8 25 -17 34 -18 9 -1 20 -8 25 -16 5 -7 20
-11 38 -8 20 3 28 0 25 -8 -2 -6 6 -14 17 -17 12 -3 19 -10 15 -16 -3 -6 5
-16 19 -22 14 -7 23 -16 19 -22 -3 -6 -1 -7 5 -3 6 3 13 2 17 -4 3 -5 11 -10
17 -10 7 0 7 4 -1 13 -6 8 -8 17 -4 20 3 4 0 7 -8 7 -8 0 -26 12 -40 28 -13
15 -44 42 -67 61 -23 19 -42 37 -42 40 0 3 11 11 25 18 14 6 25 8 25 3 0 -4
61 -6 135 -5 75 1 138 -2 141 -6 9 -15 42 -10 52 7 8 14 13 14 32 4 12 -7 20
-8 17 -3 -3 4 47 7 111 6 73 -1 122 3 130 10 10 8 16 7 21 -2 6 -10 27 -11 86
-6 53 5 76 4 71 -3 -4 -7 37 -10 124 -10 72 0 130 3 130 7 0 4 61 6 137 4 85
-2 141 1 149 8 8 7 19 7 31 1 10 -6 47 -9 83 -8 73 3 106 -8 113 -35 7 -26 25
-24 29 4 3 20 9 22 68 25 36 1 93 6 127 11 39 4 66 4 72 -2 7 -7 15 -6 24 1 8
7 17 9 21 5 4 -4 21 -8 39 -10 18 -1 55 -4 82 -6 28 -3 88 -8 135 -12 65 -6
90 -12 108 -28 15 -14 26 -17 32 -11 11 11 100 -5 100 -18 0 -5 18 -8 40 -8
28 0 40 -4 40 -14 0 -9 7 -12 20 -9 11 3 20 0 20 -6 0 -6 -9 -11 -20 -11 -11
0 -20 -5 -20 -11 0 -6 6 -9 14 -6 16 7 59 -21 51 -33 -3 -5 0 -12 6 -15 5 -4
8 -13 5 -21 -4 -9 2 -14 17 -15 21 0 21 -1 2 -9 -18 -7 -19 -8 -2 -15 9 -4 17
-15 17 -25 0 -10 6 -20 13 -23 7 -3 2 -9 -13 -15 -16 -7 -19 -11 -9 -11 9 -1
22 -7 28 -15 9 -11 8 -15 -5 -20 -16 -6 -16 -8 1 -20 16 -11 16 -17 7 -46 -15
-41 -15 -41 1 -38 8 2 13 -14 15 -49 2 -34 -1 -53 -8 -53 -6 0 -8 -4 -5 -10 3
-5 15 -10 26 -10 16 0 18 -5 13 -27 -4 -16 -8 -30 -10 -32 -2 -2 1 -10 7 -17
7 -8 7 -14 -1 -19 -5 -3 -10 -15 -10 -26 0 -16 5 -19 20 -14 11 4 20 2 20 -4
0 -6 -10 -12 -22 -12 -18 -1 -17 -3 7 -8 l30 -7 -25 -14 c-14 -8 -38 -16 -55
-18 -34 -4 -135 17 -135 28 0 4 -6 8 -12 7 -7 0 -22 1 -33 2 -16 1 -17 3 -6
10 11 7 5 11 -22 16 -20 4 -35 11 -32 15 3 4 -6 11 -20 14 -14 4 -25 11 -25
16 0 6 -8 10 -17 10 -10 0 -27 7 -37 15 -11 8 -27 13 -36 10 -9 -3 -26 4 -38
15 -15 14 -35 20 -67 20 -43 0 -82 14 -97 35 -4 5 -17 4 -32 -5 -16 -8 -65
-14 -128 -16 -57 -1 -115 -3 -131 -3 -15 0 -40 -7 -55 -14 -15 -8 -40 -13 -57
-13 -16 1 -33 -3 -37 -9 -5 -6 -12 -5 -18 5 -7 11 -10 11 -10 2 0 -9 -5 -10
-17 -3 -19 9 -48 -10 -35 -23 3 -4 -1 -4 -11 0 -12 4 -17 1 -18 -12 0 -18 -1
-18 -8 1 -8 19 -8 19 -19 0 -28 -50 -30 -51 -45 -31 -17 24 -37 13 -37 -20 0
-21 -2 -23 -18 -13 -15 9 -29 5 -75 -21 -31 -17 -57 -35 -57 -39 0 -5 -11 -21
-25 -37 -14 -16 -25 -34 -25 -41 0 -6 -4 -13 -9 -15 -12 -4 -94 -169 -94 -188
0 -8 -4 -20 -9 -27 -5 -7 -7 -16 -4 -21 3 -6 -1 -15 -9 -22 -8 -7 -13 -15 -11
-19 3 -4 -4 -33 -14 -64 -15 -45 -17 -68 -10 -105 4 -26 6 -127 4 -226 -2 -98
0 -183 4 -190 5 -6 12 -27 16 -47 5 -27 19 -46 58 -78 28 -23 57 -49 63 -59 6
-9 29 -72 50 -139 22 -68 43 -123 46 -123 4 0 10 14 14 30 4 17 11 28 16 24
13 -8 11 12 -6 53 -8 19 -15 45 -15 57 0 17 -2 18 -10 6 -8 -12 -10 -10 -10 8
0 13 -4 20 -10 17 -6 -4 -16 7 -23 24 -7 17 -16 29 -19 26 -3 -3 -10 8 -16 24
l-11 31 25 -16 c14 -10 24 -26 24 -40 0 -12 5 -26 12 -30 8 -5 9 0 6 14 -4 12
-2 22 3 22 5 0 9 -4 9 -9 0 -5 18 -27 39 -50 23 -25 38 -48 34 -57 -3 -8 1
-14 11 -14 19 0 21 -31 4 -48 -8 -8 -8 -15 -1 -24 6 -7 13 -33 17 -57 4 -24
14 -57 23 -75 l17 -31 7 25 7 25 1 -25 c2 -31 14 -46 71 -91 55 -42 148 -88
255 -123 44 -15 88 -32 99 -37 10 -6 16 -6 12 -1 -3 5 15 10 41 11 35 1 62 12
118 46 39 25 81 45 92 45 22 0 79 -58 103 -104 8 -15 25 -38 37 -50 23 -21 30
-60 14 -85 -7 -10 -13 -11 -30 -1 -17 9 -34 9 -74 -1 -29 -8 -55 -18 -59 -24
-5 -6 -8 -1 -9 10 0 11 -3 14 -6 8 -7 -18 -30 -16 -41 3 -6 11 -21 14 -57 12
-60 -4 -73 -25 -16 -25 22 0 55 -6 72 -13 30 -13 30 -14 10 -21 -14 -6 -21
-17 -21 -34 0 -14 -6 -25 -12 -26 -15 -1 21 -17 40 -18 6 -1 12 10 12 24 0 28
6 31 25 11 18 -18 59 -96 53 -101 -9 -9 -218 -4 -218 5 0 3 -17 6 -38 8 -20 2
-55 5 -77 7 -22 2 -45 4 -52 4 -20 2 -36 41 -39 100 -4 66 -10 74 -25 33 -6
-18 -15 -29 -21 -26 -5 3 -16 -2 -23 -12 -8 -11 -15 -15 -15 -10 0 14 -31 -16
-40 -40 -5 -12 -3 -52 4 -95 11 -60 15 -70 22 -52 14 34 74 75 90 62 7 -6 18
-8 24 -4 5 3 10 2 10 -3 0 -5 8 -12 18 -15 9 -2 24 -8 34 -12 11 -4 18 0 23
14 5 18 14 21 50 19 26 -1 42 -5 38 -11 -3 -6 -1 -7 5 -3 6 3 22 2 37 -4 27
-10 132 -24 173 -23 25 1 26 -1 12 -28 -10 -17 -7 -19 20 -19 16 0 30 5 30 10
0 6 5 10 12 10 6 0 8 -3 5 -7 -4 -3 1 -11 9 -18 15 -11 15 -14 -1 -38 -10 -15
-27 -27 -39 -27 -18 0 -19 -2 -6 -11 12 -9 11 -10 -7 -6 -16 3 -23 0 -23 -9 0
-8 -4 -14 -10 -14 -5 0 -10 5 -10 10 0 6 -7 10 -15 10 -8 0 -15 -5 -15 -11 0
-8 -12 -10 -35 -6 -19 3 -37 1 -40 -4 -10 -15 -147 -11 -177 5 -16 8 -28 11
-28 5 0 -5 4 -9 10 -9 5 0 20 -11 34 -25 14 -14 33 -25 43 -25 27 0 44 -14 46
-37 1 -19 3 -20 24 -6 13 9 23 19 23 23 0 4 12 12 27 19 25 11 47 11 189 -4
43 -4 91 -31 105 -57 6 -12 24 -32 40 -46 24 -20 29 -32 29 -70 1 -54 15 -78
53 -87 18 -5 29 -17 37 -41 7 -19 20 -39 31 -44 30 -16 46 -48 68 -135 21 -77
21 -82 4 -134 -15 -50 -15 -55 0 -66 12 -8 13 -15 5 -23 -8 -8 -5 -9 11 -5 17
4 19 8 10 19 -7 8 -10 16 -8 17 24 18 223 47 319 47 30 0 63 7 80 16 40 24 78
12 95 -30 8 -19 29 -45 47 -59 57 -45 68 -57 68 -72 0 -20 -8 -19 -55 8 -29
16 -42 32 -50 58 -11 41 -32 69 -50 69 -7 0 -25 -10 -41 -22 -19 -16 -49 -25
-93 -30 -37 -3 -115 -13 -176 -21 -60 -8 -140 -18 -177 -22 -66 -6 -67 -6 -82
23 -17 33 -12 68 15 98 11 11 16 24 12 28 -4 4 -7 19 -8 33 0 22 -5 26 -32 27
-31 1 -34 -2 -51 -55 -20 -61 -20 -51 18 -322 6 -42 8 -82 5 -87 -3 -5 -13
-35 -20 -65 -19 -72 -39 -102 -86 -126 -38 -19 -56 -41 -62 -76 -1 -10 -10
-29 -20 -43 -9 -13 -17 -30 -17 -37 0 -7 -7 -13 -16 -13 -8 0 -12 -4 -9 -10 3
-5 -1 -20 -9 -32 -9 -12 -16 -29 -16 -37 0 -8 -6 -22 -13 -30 -8 -9 -20 -38
-27 -66 -7 -27 -22 -58 -34 -68 -12 -10 -15 -16 -8 -12 15 8 15 0 0 -28 -7
-12 -12 -26 -13 -32 0 -5 -4 -11 -9 -12 -10 -2 -36 -58 -36 -77 0 -6 5 -4 11
4 9 13 10 13 6 0 -2 -8 -11 -14 -19 -12 -11 1 -13 -5 -10 -28 3 -21 0 -32 -12
-36 -9 -3 -14 -9 -11 -14 2 -4 -7 -18 -20 -30 -14 -13 -25 -32 -25 -42 0 -10
-7 -18 -17 -18 -15 0 -16 -2 -3 -10 12 -7 11 -12 -5 -30 -11 -12 -20 -29 -20
-38 -1 -9 -2 -30 -3 -45 -1 -16 -6 -25 -12 -22 -5 3 -10 -2 -10 -12 0 -15 -2
-16 -10 -3 -9 13 -10 13 -10 0 -1 -9 -6 -6 -14 9 -8 14 -16 19 -20 13 -3 -6 0
-13 6 -16 10 -5 10 -7 1 -12 -18 -8 -16 -27 2 -20 8 3 15 1 15 -4 0 -16 -33
-28 -71 -27 -32 1 -35 3 -26 18 6 10 15 15 21 12 5 -3 6 -1 2 6 -4 6 -12 9
-17 6 -5 -4 -9 1 -9 9 0 24 -17 19 -24 -6 -5 -22 -6 -22 -19 -4 -10 13 -16 15
-21 8 -4 -7 -3 -12 3 -12 6 0 8 -7 5 -15 -4 -8 -1 -22 6 -30 11 -13 10 -14 -4
-9 -9 3 -16 10 -16 15 0 5 -5 9 -11 9 -5 0 -7 -4 -4 -10 3 -5 1 -10 -6 -10 -8
0 -10 -12 -5 -38 5 -35 3 -40 -22 -53 -15 -8 -33 -19 -39 -26 -15 -13 -17 -33
-4 -33 5 0 11 -9 14 -21 5 -20 5 -20 -13 -4 -15 14 -21 14 -42 3 -12 -7 -25
-16 -28 -19 -3 -4 -14 -8 -25 -10 -10 -2 -28 -21 -38 -41 -11 -20 -29 -39 -40
-42 -15 -4 -18 -11 -15 -31 6 -29 -19 -49 -46 -39 -9 3 -16 1 -16 -5 0 -6 -9
-11 -20 -11 -26 0 -26 -16 1 -23 12 -3 18 -10 15 -16 -4 -5 -7 -26 -8 -46 -2
-43 -19 -32 -20 14 -1 17 -5 31 -10 31 -8 0 -13 -29 -10 -63 1 -10 -3 -15 -8
-12 -6 3 -10 1 -10 -5 0 -7 -8 -9 -21 -5 -16 5 -20 3 -17 -6 3 -8 15 -13 27
-11 l23 4 -22 -22 c-16 -16 -25 -18 -34 -11 -10 8 -15 2 -23 -24 -7 -20 -7
-33 -2 -29 6 3 8 -12 7 -38 -3 -38 -6 -43 -26 -41 -28 4 -38 -20 -23 -54 10
-22 8 -28 -14 -49 -14 -13 -30 -24 -36 -24 -5 0 -19 -9 -31 -20 l-22 -20 28 0
c15 0 25 -4 21 -10 -3 -5 -15 -10 -26 -10 -11 0 -17 -4 -14 -10 3 -5 -1 -10
-9 -10 -19 0 -22 -50 -4 -68 9 -9 9 -12 0 -12 -7 0 -12 5 -12 10 0 6 -4 10 -9
10 -5 0 -14 -20 -20 -45 -6 -25 -14 -45 -17 -45 -3 0 -4 10 -1 23 4 12 2 29
-3 37 -7 11 -10 9 -15 -11 -3 -13 -7 -34 -8 -46 0 -13 -5 -23 -9 -23 -5 0 -18
-11 -30 -25 -12 -14 -25 -25 -30 -25 -4 0 -17 -9 -28 -20 -18 -18 -51 -26 -87
-21 -7 1 -13 -3 -13 -9 0 -5 -9 -10 -20 -10 -11 0 -20 5 -20 12 0 9 -3 9 -11
1 -9 -9 -19 -8 -42 3 -22 12 -31 13 -37 4 -5 -8 -9 -7 -13 4 -4 11 -1 16 11
17 16 1 16 2 0 6 -10 2 -18 13 -18 24 0 11 -5 17 -10 14 -6 -3 -14 4 -20 17
-14 35 -36 59 -50 56 -17 -4 -30 42 -19 64 9 17 -15 88 -29 88 -12 0 -47 91
-47 125 -1 16 -4 39 -9 50 -4 11 -12 30 -17 42 -4 13 -6 30 -3 38 4 8 1 15 -5
15 -6 0 -11 12 -11 28 -1 26 -1 26 -16 7 -14 -19 -15 -17 -8 20 4 22 12 43 18
47 6 4 -1 8 -17 8 -21 0 -30 7 -38 27 -7 20 -6 28 3 35 10 6 8 8 -4 8 -10 0
-18 6 -18 14 0 8 -6 17 -12 19 -10 4 -9 8 2 16 13 10 13 12 0 21 -8 5 -21 10
-27 10 -17 0 -17 57 0 63 9 4 9 8 -2 15 -9 6 -12 19 -8 33 3 13 1 29 -5 36 -8
10 0 23 31 53 22 22 50 40 60 40 10 0 21 6 24 14 3 7 25 16 48 20 24 4 48 11
54 15 11 10 154 38 195 40 74 2 115 -1 118 -10 2 -5 12 -9 23 -9 26 0 24 -17
-2 -25 -15 -5 -18 -10 -9 -15 8 -5 4 -9 -12 -14 -19 -5 -20 -8 -8 -16 13 -8
12 -10 -2 -10 -11 0 -18 -8 -18 -20 0 -15 -7 -20 -25 -20 -18 0 -25 -5 -25
-20 0 -14 -7 -20 -22 -20 -22 -1 -23 -1 -4 -15 19 -14 17 -15 -20 -15 -29 0
-35 -3 -24 -10 13 -9 13 -11 0 -20 -8 -5 -10 -10 -5 -10 6 0 2 -5 -7 -11 -10
-5 -18 -19 -18 -29 0 -10 -8 -24 -17 -29 -17 -10 -17 -10 0 -11 10 0 16 -4 12
-10 -3 -5 -13 -6 -22 -3 -14 5 -15 1 -10 -27 5 -20 2 -38 -5 -47 -9 -11 -9
-16 1 -23 11 -6 10 -12 -3 -32 -13 -20 -14 -30 -4 -59 7 -18 14 -36 15 -38 6
-10 42 47 43 67 0 13 4 21 9 18 5 -4 7 3 4 13 -6 23 9 75 43 147 20 44 31 55
69 70 25 11 48 27 51 36 5 17 40 29 117 37 4 1 7 8 7 17 0 10 6 14 15 10 8 -3
15 -1 15 5 0 6 7 8 16 5 11 -4 18 1 21 14 3 11 17 23 31 27 22 5 23 7 8 12
-14 6 -11 9 16 20 18 8 56 40 83 71 28 32 52 58 55 57 16 -3 50 16 50 29 0 8
9 14 20 14 21 0 28 19 8 21 -7 0 2 7 19 15 20 8 35 24 39 39 3 14 12 25 20 25
8 0 14 7 14 15 0 25 1 29 12 42 6 7 14 10 19 7 5 -3 9 -2 8 3 -4 23 3 33 24
34 17 1 18 2 4 6 -15 4 -14 9 13 42 27 35 72 123 75 146 3 22 41 71 53 68 6
-3 12 2 12 11 0 9 4 16 10 16 5 0 7 7 4 15 -4 9 1 18 11 21 13 5 14 9 3 15
-10 7 -9 9 5 9 11 0 17 8 17 21 0 18 2 20 16 8 13 -11 14 -9 9 13 -5 21 -3 26
12 25 12 -1 17 4 15 16 -2 10 3 17 14 17 10 0 14 5 10 15 -4 11 2 15 24 15 27
0 37 16 19 30 -4 3 0 12 9 20 14 13 15 12 9 -3 -4 -11 -1 -17 8 -17 8 0 15 12
17 28 2 15 8 26 16 25 6 -2 12 2 12 7 0 6 -7 10 -15 10 -8 0 -15 5 -15 11 0 7
10 9 26 5 23 -6 25 -4 19 15 -5 13 -3 19 3 15 12 -7 18 8 27 67 6 39 4 46 -12
50 -16 4 -16 6 5 12 24 8 28 20 12 30 -7 4 -7 11 -2 18 15 20 5 138 -16 194
-10 29 -22 50 -25 47 -3 -3 -3 3 0 15 3 12 1 27 -5 34 -5 6 -6 21 -2 32 4 11
1 33 -6 50 -7 17 -21 59 -32 95 -11 36 -26 79 -33 95 -7 17 -11 34 -10 39 1 4
-3 23 -9 42 -13 39 -8 62 21 93 30 32 27 66 -10 140 -12 22 -19 41 -16 41 2 0
19 -9 37 -20 18 -11 41 -20 50 -20 9 0 18 -5 20 -12 2 -6 14 2 26 20 23 31 16
50 -13 38 -8 -3 -15 -1 -15 4 0 12 -26 13 -33 3 -2 -5 -2 -2 -1 5 2 6 -2 12
-9 12 -7 0 -19 -6 -26 -12 -11 -11 -12 -10 -7 0 10 17 -12 42 -53 59 -27 11
-32 19 -29 37 3 17 0 23 -11 22 -16 -1 -20 27 -10 64 3 11 -5 15 -30 15 -23 1
-38 7 -45 19 -15 25 -60 75 -50 56 4 -8 -9 2 -29 23 -19 20 -39 37 -42 37 -4
0 -25 20 -48 44 -33 37 -44 43 -59 35 -10 -5 -18 -18 -18 -29 0 -23 45 -113
65 -130 8 -7 15 -23 15 -36 0 -15 6 -24 15 -24 8 0 15 -7 15 -15 0 -8 4 -15
10 -15 5 0 9 -3 9 -7 -4 -27 5 -42 31 -53 28 -12 29 -14 13 -26 -17 -13 -17
-13 0 -14 9 0 17 -7 17 -16 0 -11 -6 -13 -19 -9 -11 3 -22 1 -26 -5 -4 -6 4
-10 19 -10 19 0 26 -5 26 -20 0 -11 -4 -20 -10 -20 -5 0 -10 -7 -10 -15 0 -8
-8 -15 -17 -15 -13 0 -14 -3 -5 -12 8 -8 15 -8 27 2 13 11 15 9 15 -14 0 -16
-6 -26 -14 -26 -8 0 -18 -9 -21 -20 -3 -11 -15 -20 -26 -20 -24 0 -25 -16 -1
-29 16 -10 16 -10 0 -11 -23 0 -24 -36 -2 -44 10 -4 14 -12 10 -23 -7 -16 23
-53 43 -53 6 0 8 -12 5 -29 -6 -28 15 -58 24 -33 2 7 8 12 14 12 6 0 8 -7 4
-15 -3 -9 0 -15 9 -15 8 0 15 -5 15 -11 0 -6 -9 -9 -20 -6 -26 7 -26 1 1 -13
15 -9 24 -8 37 2 15 11 15 11 5 -3 -15 -18 -8 -29 18 -29 9 0 19 -6 22 -12 3
-10 7 -10 20 1 11 9 17 10 17 2 0 -7 10 -9 28 -5 21 4 24 3 12 -5 -10 -7 -11
-11 -2 -11 6 0 12 -9 12 -20 0 -11 4 -20 10 -20 5 0 7 -7 4 -15 -4 -8 1 -38
10 -66 9 -27 14 -55 10 -61 -4 -6 -3 -8 4 -4 10 6 36 -59 46 -117 3 -15 8 -36
11 -47 9 -30 -9 -24 -26 7 -8 16 -36 50 -63 78 -26 27 -60 66 -75 85 -14 19
-31 40 -37 45 -6 6 -35 37 -64 70 -29 33 -69 78 -89 100 -59 63 -111 131 -111
143 0 6 -18 30 -40 54 -59 63 -200 273 -213 316 -15 52 -15 54 0 79 19 32 -3
40 -35 14 -15 -11 -45 -31 -67 -42 -22 -12 -42 -25 -45 -30 -3 -5 -26 -15 -50
-24 -43 -15 -44 -15 -73 12 -53 50 -186 224 -281 368 -205 311 -355 616 -389
793 -8 40 9 43 50 8 35 -29 389 -266 398 -266 3 0 21 -11 38 -24 46 -35 349
-207 478 -271 121 -61 123 -61 115 21 -2 27 -5 55 -5 62 -1 6 -12 12 -25 12
-13 0 -50 10 -81 22 -50 19 -63 30 -106 91 -27 39 -49 81 -49 93 0 13 -9 29
-19 36 -10 6 -17 17 -14 23 5 14 -45 49 -67 48 -9 -1 -20 8 -25 20 -6 12 -24
27 -42 32 -17 6 -40 18 -51 28 -11 10 -25 17 -33 15 -7 -2 -13 3 -14 10 0 11
-22 26 -95 64 -14 7 -27 15 -30 18 -7 7 -88 50 -94 50 -4 0 -6 -4 -6 -10 0 -5
9 -10 20 -10 11 0 20 -4 20 -10 0 -18 -32 -11 -66 15 -18 14 -37 25 -43 25 -6
0 -11 5 -11 10 0 14 10 13 43 -4 15 -8 27 -11 27 -7 0 4 -36 25 -80 47 -43 22
-75 35 -69 28 5 -6 23 -17 39 -24 17 -7 30 -16 30 -21 0 -12 -8 -11 -23 1 -7
6 -34 25 -62 42 -76 48 -209 162 -318 271 -68 68 -102 96 -109 89 -6 -6 -14
-40 -17 -77 -4 -37 -13 -70 -20 -74 -6 -4 -69 7 -139 26 -134 35 -320 81 -362
89 -68 14 -72 15 -66 29 3 10 0 12 -11 8 -14 -5 -12 1 6 30 14 23 18 37 11 37
-7 0 -10 7 -6 16 3 8 2 13 -3 10 -5 -3 -14 8 -21 25 -16 38 -31 33 -47 -17
l-13 -39 4 49 c2 27 9 52 16 56 9 6 6 10 -9 15 -11 3 -21 10 -21 15 0 5 7 7
15 4 8 -4 15 -2 15 4 0 5 -7 12 -15 16 -20 7 -19 26 2 26 13 0 14 3 5 12 -20
20 -14 37 11 31 16 -3 18 -2 8 5 -11 8 -11 16 0 46 7 20 17 36 21 36 8 0 39
67 35 74 -1 2 5 12 13 22 27 33 39 62 46 103 4 24 11 38 17 34 5 -3 8 0 5 7
-7 23 -29 23 -35 1 -3 -12 -12 -21 -19 -21 -8 0 -17 -8 -21 -17 -21 -62 -63
-134 -101 -171 -43 -42 -45 -43 -64 -25 -18 16 -18 18 -2 23 12 5 14 9 6 14
-7 4 -12 16 -12 28 0 11 -8 22 -19 25 -16 4 -18 9 -11 28 5 13 6 33 3 46 -5
19 -3 21 12 15 18 -7 18 -6 0 14 -22 25 -38 25 -61 3 -16 -16 -17 -15 -12 35
3 29 1 52 -4 52 -5 0 -6 -4 -3 -10 3 -5 0 -10 -8 -10 -10 0 -13 7 -10 20 3 11
14 20 24 20 11 0 19 4 19 10 0 5 -7 7 -15 4 -18 -7 -20 7 -3 24 13 13 18 82 6
82 -4 0 -8 -5 -8 -11 0 -6 -5 -9 -11 -7 -6 2 -12 27 -13 56 -1 46 1 52 17 48
24 -6 24 59 0 73 -17 10 -17 10 0 11 9 0 17 4 17 9 0 5 -10 7 -21 4 -16 -4
-20 -2 -17 8 3 8 14 13 24 11 11 -2 15 0 9 5 -6 4 -12 18 -12 31 -1 12 -11 36
-23 52 -12 17 -17 30 -12 30 6 0 12 -5 14 -12 3 -7 9 -8 18 -3 10 6 6 11 -14
22 -21 11 -25 19 -20 38 5 19 2 25 -10 25 -9 0 -16 2 -16 4 0 2 -3 11 -6 20
-3 9 -1 16 5 16 6 0 11 -7 11 -15 0 -8 6 -15 14 -15 11 0 13 7 6 30 -9 32 -1
44 24 34 12 -5 18 2 22 24 4 21 11 29 20 25 9 -3 14 2 14 17 0 16 4 20 18 16
12 -4 26 1 37 14 11 12 30 20 45 19 59 -3 72 0 66 19 -6 16 0 19 41 20 26 0
49 5 51 11 5 15 32 14 32 -1 0 -9 3 -9 8 -3 4 6 17 12 30 12 17 1 26 -7 37
-34 16 -37 30 -36 37 2 2 11 8 20 13 21 6 0 18 4 27 8 10 5 56 6 103 5 61 -3
86 -1 90 9 6 17 24 15 32 -4z m1950 -1449 c-1 -36 -5 -45 -19 -45 -11 0 -18
-8 -18 -19 0 -28 16 -34 32 -13 21 30 53 42 107 42 39 0 51 -4 51 -15 0 -9 13
-18 31 -22 18 -3 34 -14 39 -27 7 -19 9 -19 15 -3 9 21 25 23 25 2 0 -18 20
-20 20 -2 0 6 8 0 18 -15 19 -32 39 -36 45 -10 3 13 7 10 16 -13 7 -16 15 -25
19 -19 11 16 53 10 99 -14 23 -12 49 -22 58 -22 9 0 26 -10 39 -23 21 -21 23
-22 41 -5 21 20 42 13 24 -8 -6 -8 -9 -17 -5 -21 3 -3 6 -1 6 5 0 7 7 12 15
12 8 0 15 -4 15 -9 0 -5 9 -12 20 -16 16 -5 17 -10 10 -30 -6 -15 -6 -27 0
-30 6 -4 11 -23 12 -43 l1 -37 4 35 c3 19 10 38 16 42 8 5 7 8 -3 8 -11 0 -11
3 3 11 14 8 22 8 30 0 6 -6 7 -11 1 -11 -5 0 -8 -18 -6 -40 3 -26 9 -40 18
-40 8 0 14 -7 14 -15 0 -8 4 -15 8 -15 14 0 32 23 32 42 0 30 30 20 44 -13 12
-30 14 -31 25 -13 10 15 11 3 7 -59 -3 -43 -8 -82 -11 -87 -8 -13 -47 -13 -79
0 -17 6 -26 6 -26 -1 0 -6 -7 -6 -19 1 -13 6 -22 7 -26 0 -3 -5 -12 -7 -20 -3
-8 3 -15 0 -15 -6 0 -6 -18 -11 -41 -11 -22 0 -38 -4 -35 -8 3 -5 -33 -7 -80
-5 -53 2 -84 -1 -84 -7 0 -14 -46 -31 -65 -24 -8 4 -15 13 -15 22 0 13 -3 12
-20 -3 -15 -13 -23 -15 -33 -7 -17 14 -194 42 -227 36 -74 -14 -101 -14 -160
-2 -69 14 -124 13 -115 -3 4 -5 -1 -12 -9 -15 -9 -3 -13 -10 -10 -15 3 -5 10
-6 16 -3 6 4 14 1 18 -5 4 -7 13 -13 21 -15 26 -4 52 -23 41 -30 -6 -3 -13 -2
-17 4 -3 5 -29 10 -56 10 -28 0 -48 4 -45 9 4 5 -3 7 -13 4 -18 -5 -84 46
-133 102 -21 25 -23 74 -3 81 8 4 15 10 15 15 0 9 36 49 45 49 3 0 15 10 27
22 15 15 18 23 9 26 -8 3 -7 8 6 19 10 8 12 12 6 8 -9 -4 -11 -1 -7 9 3 9 10
16 15 16 5 0 9 5 9 11 0 6 10 25 22 42 31 43 57 97 48 97 -14 0 -3 61 15 78
16 16 17 16 11 -8 -6 -23 -6 -23 5 -5 18 30 52 60 69 60 8 1 14 6 13 13 -2 7
6 12 17 12 11 0 20 7 20 15 0 8 2 15 5 15 2 0 3 -20 2 -45z m-2202 -151 c55
-7 185 -33 215 -43 14 -5 55 -17 93 -27 58 -15 67 -20 67 -40 0 -84 104 -474
132 -494 4 -3 9 -15 11 -25 2 -11 8 -30 15 -42 7 -12 12 -29 12 -37 0 -9 4
-16 8 -16 4 0 14 -17 21 -37 22 -61 71 -165 92 -195 11 -14 18 -30 17 -35 -1
-4 10 -27 25 -50 15 -24 27 -47 27 -53 0 -5 4 -10 9 -10 5 0 12 -12 16 -27 3
-15 17 -38 31 -51 13 -14 24 -31 24 -38 0 -21 34 -83 46 -84 6 0 18 -15 26
-34 26 -54 10 -67 -97 -75 -60 -5 -91 -3 -99 5 -7 6 -20 8 -31 4 -34 -13 -79
2 -111 37 -18 18 -35 40 -38 48 -3 8 -10 15 -15 15 -5 0 -12 18 -16 40 -5 28
-16 47 -41 66 -21 17 -34 36 -34 51 0 13 -6 23 -13 23 -8 0 -20 18 -27 41 -8
22 -23 47 -34 55 -18 12 -19 17 -8 35 8 12 12 22 10 23 -2 1 -18 13 -35 25
-18 12 -33 28 -33 34 0 7 4 6 10 -3 11 -17 13 -10 4 14 -4 10 -19 16 -38 17
-18 1 -23 3 -13 6 26 7 14 29 -14 25 l-24 -3 25 20 c20 16 21 21 8 21 -25 0
-71 47 -65 64 4 9 0 28 -8 42 -9 18 -11 33 -5 45 7 13 5 18 -10 22 -10 3 -21
0 -24 -7 -2 -6 -5 0 -5 14 -2 42 -13 70 -27 70 -9 0 -14 12 -14 37 0 29 -6 42
-27 59 -25 20 -26 25 -15 43 16 28 16 29 -13 23 -20 -3 -25 0 -25 16 0 12 5
24 10 27 15 9 2 25 -21 25 -19 0 -52 55 -52 87 0 7 -6 14 -14 17 -10 4 -12 17
-7 46 5 28 3 40 -5 40 -26 0 -41 27 -31 55 13 35 13 37 -7 33 -10 -1 -19 2
-21 7 -1 6 7 11 18 13 18 3 19 6 9 19 -19 22 7 35 56 28 22 -4 58 -9 80 -11z
m5377 -667 c-7 -8 -10 -37 -8 -67 2 -30 0 -65 -5 -78 -6 -16 -6 -29 2 -38 9
-11 7 -14 -10 -14 -25 0 -27 -12 -5 -46 22 -33 13 -39 -19 -13 -32 24 -36 9
-6 -20 11 -10 19 -27 17 -37 -3 -16 -4 -17 -20 -1 -9 9 -20 17 -23 17 -4 0
-16 10 -26 23 l-20 22 3 -25 c4 -33 -26 -34 -30 -1 -2 15 0 21 7 17 6 -4 11
-3 11 3 0 20 -23 23 -37 5 -14 -19 -15 -19 -29 0 -13 19 -14 18 -12 -10 2 -36
25 -74 45 -74 8 0 12 -4 9 -9 -3 -4 -17 -6 -31 -3 -20 3 -24 9 -20 23 5 15 0
20 -24 25 -33 7 -52 25 -33 32 18 6 14 22 -6 22 -10 0 -25 9 -35 20 -9 11 -28
20 -41 20 -55 0 -38 24 64 90 25 16 51 30 58 30 6 0 12 4 12 8 0 5 16 14 35
22 19 8 35 19 35 26 0 14 65 28 82 18 7 -5 9 -2 6 7 -4 10 4 15 30 17 28 2 32
0 24 -11z m-2322 -291 c-36 -148 -90 -286 -90 -228 0 12 -4 22 -10 22 -5 0 -7
-7 -4 -15 4 -8 2 -15 -3 -15 -6 0 -15 15 -21 33 -6 19 -10 24 -11 13 -1 -12
-6 -16 -17 -12 -9 3 -27 6 -40 6 -16 0 -24 6 -25 18 -1 16 -2 16 -6 0 -2 -10
-20 -25 -39 -34 -30 -14 -41 -15 -75 -5 -22 7 -37 16 -34 22 11 16 67 41 84
36 10 -2 26 2 37 11 12 9 14 13 4 9 -13 -4 -16 5 -17 50 -1 30 -6 60 -12 66
-15 19 3 40 38 42 16 1 28 -2 25 -7 -3 -4 2 -8 11 -8 9 0 13 5 10 10 -3 6 2
10 13 10 10 0 22 3 25 7 10 10 105 42 111 37 3 -2 4 -1 1 2 -2 4 10 15 28 24
42 23 43 14 17 -94z m1925 -27 c11 0 14 -3 8 -6 -18 -7 -16 -23 1 -23 8 0 18
-9 21 -20 3 -11 13 -20 21 -20 17 0 19 -16 2 -23 -7 -3 -3 -6 10 -6 22 -1 52
-22 52 -36 0 -4 18 -27 40 -52 22 -25 40 -50 40 -54 0 -5 7 -9 16 -9 11 0 13
-6 9 -19 -4 -14 0 -21 15 -26 11 -3 20 -12 20 -19 0 -7 16 -30 35 -52 19 -21
35 -43 35 -47 0 -5 11 -23 25 -41 14 -19 26 -46 26 -62 0 -16 1 -78 2 -137 1
-60 -1 -111 -4 -113 -4 -2 -4 -15 -2 -28 3 -14 -5 -87 -17 -162 -12 -75 -19
-158 -17 -183 5 -46 39 -176 48 -185 3 -3 1 -42 -4 -88 -4 -46 -7 -90 -7 -98
5 -49 1 -112 -7 -123 -17 -21 -40 -128 -68 -307 -34 -228 -32 -221 -82 -240
-23 -8 -58 -29 -78 -45 -36 -30 -37 -32 -56 -159 -19 -122 -21 -198 -5 -131
16 64 56 109 78 87 6 -6 16 -8 23 -6 11 5 40 -21 40 -35 0 -3 8 -6 18 -5 20 1
24 -35 5 -54 -9 -9 -9 -12 0 -12 7 0 12 -16 12 -40 0 -22 -4 -40 -10 -40 -15
0 -12 -77 3 -83 6 -3 2 -6 -10 -6 -29 -1 -40 -21 -19 -33 23 -13 11 -26 -19
-20 -21 4 -25 0 -26 -19 -2 -24 -2 -24 -6 -1 -7 35 -23 15 -23 -29 0 -24 -4
-38 -10 -34 -6 3 -8 21 -6 38 4 40 -12 100 -24 92 -6 -4 -10 -18 -10 -33 0
-19 -3 -23 -9 -14 -7 11 -9 11 -14 -2 -4 -9 -2 -16 3 -16 6 0 10 -7 10 -15 0
-8 -4 -15 -9 -15 -11 0 -21 35 -21 73 0 16 -4 26 -10 22 -5 -3 -10 -2 -10 4 0
5 5 13 10 16 6 3 10 17 10 31 0 42 -17 18 -24 -33 -4 -27 -11 -77 -17 -113
-44 -281 -54 -326 -66 -292 -8 21 -23 2 -23 -29 0 -37 -29 -204 -40 -235 -5
-13 -7 -31 -4 -39 4 -8 -1 -33 -9 -54 -14 -34 -14 -40 -2 -45 18 -7 19 -39 3
-69 -6 -12 -12 -42 -13 -67 -3 -56 -14 -100 -26 -100 -5 0 -7 -11 -3 -25 5
-19 2 -25 -10 -25 -14 0 -16 8 -10 50 5 34 3 50 -5 50 -7 0 -11 19 -11 49 0
61 -7 81 -26 74 -8 -3 -14 0 -14 6 0 6 6 11 13 11 9 0 9 2 0 8 -9 6 -7 12 7
25 32 27 24 37 -31 37 -41 0 -50 3 -45 15 3 9 0 15 -8 15 -7 0 -19 18 -26 40
-7 22 -16 38 -18 35 -3 -3 -21 22 -39 55 -19 33 -38 60 -44 60 -5 0 -9 9 -9
20 0 11 7 20 15 20 27 0 16 19 -20 34 -31 13 -57 48 -60 81 0 6 -5 17 -10 25
-6 8 -10 50 -11 92 0 43 -4 81 -7 85 -11 10 -8 93 4 138 6 22 22 52 35 66 14
14 24 30 23 35 -4 22 2 34 16 34 8 0 15 5 15 10 0 6 12 10 26 10 14 0 23 -4
19 -10 -3 -5 -1 -10 5 -10 8 0 10 9 7 23 -8 29 2 42 36 51 23 5 28 4 25 -11
-2 -10 2 -17 10 -15 6 1 12 -3 12 -9 0 -5 4 -7 10 -4 18 11 79 -6 73 -20 -2
-8 4 -21 15 -31 19 -16 20 -54 0 -54 -5 0 -5 -6 0 -17 6 -9 6 -29 1 -46 -5
-17 -7 -33 -4 -35 9 -10 31 7 45 34 23 44 39 59 52 46 6 -6 17 -8 24 -5 8 3
14 0 14 -6 0 -6 -4 -11 -10 -11 -5 0 -10 -9 -10 -21 0 -15 5 -19 15 -15 12 4
15 -3 15 -35 0 -22 -4 -48 -9 -57 -5 -9 -12 -53 -15 -97 l-7 -80 20 33 c12 18
21 40 21 50 0 10 5 23 11 29 23 23 23 144 0 226 -26 97 -39 116 -104 161 -68
46 -140 70 -166 56 -11 -5 -30 -10 -44 -10 -23 0 -23 1 -15 68 4 37 7 180 6
317 -3 257 10 391 45 457 l13 26 29 -34 c17 -19 35 -34 42 -34 6 0 15 -10 19
-22 3 -12 62 -77 130 -145 68 -68 124 -130 124 -138 0 -8 7 -15 15 -15 8 0 15
-6 15 -12 0 -7 11 -18 25 -24 22 -11 24 -9 30 18 12 51 -5 168 -26 186 -11 9
-19 23 -19 31 0 8 -19 32 -42 53 -23 21 -37 38 -30 38 7 0 12 4 12 10 0 5 -6
7 -14 4 -15 -6 -50 42 -41 56 3 6 -1 10 -9 10 -10 0 -13 6 -10 15 5 11 -1 15
-19 15 -27 0 -59 34 -51 54 3 7 -6 17 -19 23 -14 7 -31 25 -38 42 -10 22 -17
27 -26 20 -9 -8 -14 -4 -19 18 -4 15 -11 34 -17 41 -18 22 2 26 22 3 12 -14
25 -19 36 -15 12 5 16 2 15 -12 -3 -32 11 -62 36 -79 24 -16 44 -13 44 6 0 5
-9 9 -20 9 -23 0 -40 28 -40 67 0 22 2 25 10 13 8 -12 10 -11 10 6 0 12 -18
40 -40 63 -45 46 -47 57 -23 141 15 55 15 77 2 252 -8 106 -14 243 -14 303 0
106 2 114 47 238 31 82 43 127 35 127 -6 0 -4 5 6 11 9 5 17 20 17 32 0 13 6
29 12 35 10 10 10 17 0 32 -7 11 -8 20 -3 20 5 0 11 10 14 23 3 12 10 36 15
54 7 23 7 38 -3 57 -13 24 -12 26 6 26 11 0 19 7 19 17 0 13 3 14 12 5 7 -7
21 -12 33 -13z m-1131 -116 c8 -95 67 -297 110 -378 9 -16 16 -36 16 -43 0 -7
4 -20 10 -30 5 -9 17 -35 26 -57 9 -22 27 -62 40 -88 13 -27 24 -53 24 -58 0
-13 -212 -10 -230 4 -8 7 -16 30 -16 52 -1 22 -7 78 -13 125 -6 47 -12 118
-12 158 -1 41 -7 85 -15 100 -12 24 -12 28 3 33 11 3 13 8 6 12 -6 4 -9 16 -6
26 3 10 1 21 -4 24 -5 3 -7 25 -4 49 5 42 5 42 12 13 7 -24 8 -20 5 17 -2 33
1 48 10 52 8 3 14 20 14 41 0 65 17 28 24 -52z m-170 -520 c-4 -104 -8 -205
-8 -225 -2 -46 -11 -56 -26 -28 -17 31 -14 270 4 355 9 39 16 73 16 78 0 4 5
7 11 7 7 0 8 -58 3 -187z m-2712 152 c13 -11 26 -19 30 -17 4 1 4 -6 1 -15 -4
-11 -3 -14 5 -9 7 4 15 1 18 -8 3 -9 12 -16 20 -16 8 0 14 -6 14 -14 0 -8 7
-16 15 -20 9 -3 12 -12 8 -22 -4 -12 -3 -15 6 -10 15 10 45 -29 47 -59 2 -26
-14 -35 -43 -24 -41 15 -69 10 -97 -17 -23 -24 -30 -24 -28 -3 1 4 -15 10 -36
14 -20 4 -48 9 -62 12 -14 3 -32 6 -40 7 -8 2 -17 16 -20 32 -4 23 -10 28 -28
26 -16 -2 -20 1 -16 12 4 9 1 16 -6 16 -9 0 -10 3 -1 14 12 15 5 46 -11 46 -5
0 -6 5 -3 10 4 6 -8 10 -29 10 -20 0 -36 -4 -36 -9 0 -5 10 -7 23 -4 19 4 19
3 5 -6 -9 -6 -24 -8 -32 -5 -26 10 1 34 38 34 25 0 28 2 16 11 -12 8 -9 9 12
5 15 -3 30 -1 33 5 4 6 14 8 22 5 9 -4 21 -2 27 3 10 9 62 16 108 16 10 0 28
-9 40 -20z m3154 -477 c-4 -73 -10 -134 -15 -137 -4 -3 -11 -27 -15 -53 -4
-27 -11 -48 -17 -48 -5 0 -9 -9 -9 -20 0 -11 4 -20 9 -20 5 0 12 -7 15 -16 4
-12 1 -14 -14 -9 -14 5 -20 2 -20 -9 0 -9 5 -16 10 -16 6 0 8 -11 4 -25 -3
-14 -2 -25 4 -25 11 0 26 -74 27 -130 0 -19 3 -38 8 -41 4 -3 8 -29 8 -57 1
-29 6 -52 10 -52 5 0 9 -13 9 -29 0 -17 4 -32 10 -36 5 -3 7 -12 3 -20 -3 -9
2 -26 11 -40 9 -13 16 -35 16 -48 0 -41 12 -87 21 -81 11 7 11 -7 0 -25 -7
-11 -27 -13 -90 -8 -55 3 -81 2 -85 -6 -3 -9 -7 -9 -13 0 -5 7 -21 14 -35 15
-18 2 -30 12 -41 35 -10 22 -11 33 -3 33 8 0 8 2 0 8 -20 14 -24 55 -6 68 12
9 13 13 4 14 -9 0 -11 7 -7 19 3 11 1 22 -5 26 -16 10 -12 25 5 19 8 -4 15 -1
15 5 0 6 -8 11 -17 11 -14 0 -15 2 -4 9 18 11 19 256 1 321 -6 24 -9 61 -6 82
5 31 3 39 -15 49 -17 9 -19 13 -8 20 11 6 10 9 -4 14 -13 6 -14 11 -7 26 6 10
9 22 9 26 -1 4 1 16 6 26 4 11 3 23 -4 30 -16 16 -14 27 4 21 8 -4 15 -1 15 5
0 6 -4 11 -9 11 -19 0 -30 102 -15 151 6 21 72 36 167 38 l78 1 -5 -132z m232
113 c7 -1 10 -5 7 -11 -4 -6 10 -10 34 -10 30 0 41 -4 41 -15 0 -11 -12 -15
-44 -15 -26 0 -48 -6 -56 -14 -8 -11 -18 -12 -36 -6 -15 6 -24 6 -24 0 0 -6
-15 -10 -34 -10 -18 0 -39 -7 -46 -15 -18 -22 -26 -12 -29 36 -1 23 -4 46 -7
51 -10 16 38 24 109 16 40 -4 78 -7 85 -7z m-3166 -187 c5 -3 13 -17 18 -30 8
-21 16 -24 64 -24 39 0 68 7 104 26 59 30 84 26 106 -17 13 -27 13 -29 -4 -29
-23 0 -70 -20 -88 -37 -8 -8 -39 -13 -72 -13 -55 0 -61 2 -74 29 -22 41 -90
56 -120 26 -13 -13 -17 -12 -35 11 -26 33 -26 50 -3 64 16 10 84 6 104 -6z
m695 -361 l12 -32 -63 -35 c-77 -43 -118 -47 -134 -11 -10 21 -16 24 -44 19
-18 -3 -46 -15 -61 -26 -22 -15 -37 -18 -69 -13 -23 4 -59 2 -85 -6 -42 -11
-47 -11 -59 6 -11 14 -25 18 -64 16 -46 -2 -51 0 -60 24 -6 15 -10 33 -10 41
0 34 74 29 85 -6 7 -21 42 -26 80 -11 11 5 33 5 48 0 31 -9 99 11 129 37 23
21 60 12 73 -18 14 -33 65 -26 135 17 30 19 59 33 65 31 5 -1 15 -16 22 -33z
m1703 -91 c0 -16 9 -37 19 -46 11 -10 17 -25 14 -37 -8 -27 -23 -24 -23 6 0
32 -29 33 -102 5 -62 -24 -201 -50 -265 -50 -42 0 -103 25 -103 42 0 4 -23 10
-51 14 -54 7 -79 24 -79 55 0 32 63 25 116 -13 l44 -32 110 12 c72 7 138 21
192 41 110 39 128 39 128 3z m-3410 -242 c0 -5 0 -12 0 -15 -1 -3 6 -12 14
-20 25 -25 109 -15 99 11 -3 8 -1 14 3 14 18 -1 44 -28 44 -45 0 -14 -3 -15
-15 -5 -13 11 -14 4 -9 -54 4 -46 2 -71 -6 -81 -10 -12 -10 -15 0 -15 9 0 11
-12 6 -47 -4 -27 -8 -68 -10 -93 -1 -25 -4 -54 -5 -65 l-2 -20 -10 20 c-7 15
-8 8 -6 -27 1 -25 -1 -44 -5 -42 -4 2 -9 0 -13 -6 -3 -5 -14 -10 -23 -10 -14
0 -14 2 -3 9 11 7 9 10 -8 16 -14 4 -21 15 -21 33 -1 26 -1 26 -19 -8 -11 -19
-18 -37 -16 -40 2 -3 -5 -7 -16 -7 -25 -2 -24 7 6 36 14 13 25 29 25 36 0 18
-23 32 -28 17 -2 -7 -8 -12 -14 -12 -6 0 -7 7 -4 16 5 14 -40 93 -69 119 -49
44 -76 115 -43 115 7 0 7 -4 0 -13 -7 -8 -7 -17 1 -27 15 -18 43 -24 52 -10 8
12 -19 53 -29 43 -4 -4 -4 0 0 10 7 18 24 23 24 7 0 -5 7 -10 15 -10 9 0 15
10 15 26 0 16 4 23 11 18 8 -5 10 1 7 19 -5 24 -3 26 21 20 l26 -6 -29 26 -29
27 28 0 c27 0 27 1 10 13 -10 8 -15 19 -11 25 9 15 36 16 36 2z m1857 -25 l11
-34 -57 -27 c-49 -24 -71 -28 -182 -32 l-126 -4 -5 31 c-2 17 0 35 6 41 5 5
55 10 111 10 87 0 107 3 145 24 66 34 85 33 97 -9z m-385 -42 c3 -21 4 -39 3
-41 -5 -6 -168 -42 -191 -42 -19 0 -28 8 -39 33 l-14 32 42 13 c43 13 163 40
183 41 7 1 14 -16 16 -36z m-2087 -23 c-4 -19 -3 -30 4 -30 7 0 9 -10 5 -25
-8 -31 13 -41 53 -27 23 9 24 11 8 12 -11 1 -26 2 -32 1 -7 -1 -13 3 -13 9 0
5 11 10 25 10 14 0 25 5 25 10 0 6 -7 10 -15 10 -8 0 -15 5 -15 11 0 6 8 7 23
3 24 -9 61 -10 92 -3 17 3 20 -2 22 -31 1 -19 2 -41 2 -49 1 -9 9 -12 26 -9
14 3 25 2 25 -2 0 -5 12 -8 28 -7 74 3 104 -3 98 -18 -4 -10 1 -15 14 -15 11
0 30 -10 41 -21 17 -17 19 -23 8 -30 -10 -6 -8 -9 9 -9 12 0 22 -6 22 -13 0
-7 14 -21 30 -30 17 -10 30 -25 30 -33 0 -8 4 -14 10 -14 5 0 12 -11 16 -25 3
-14 10 -25 15 -25 5 0 9 -9 9 -21 0 -16 -4 -19 -20 -14 -11 4 -20 2 -20 -4 0
-6 -4 -11 -10 -11 -5 0 -10 8 -10 19 0 15 -10 20 -50 25 -28 4 -55 4 -60 1 -6
-3 -10 -1 -10 4 0 25 -341 -7 -396 -37 -10 -6 -47 -20 -81 -32 -35 -13 -63
-27 -63 -32 0 -5 -4 -7 -9 -4 -14 9 -141 -58 -180 -94 -18 -17 -38 -29 -45
-27 -15 5 -19 69 -8 123 6 26 6 47 1 50 -5 3 -6 11 -2 17 4 7 8 26 9 42 2 43
14 128 23 161 6 23 13 28 32 26 17 -1 20 1 10 7 -11 7 -9 13 8 30 11 11 26 21
31 21 6 0 10 5 10 11 0 6 7 9 15 5 8 -3 14 0 12 7 -1 7 9 12 23 12 14 0 31 4
38 8 6 5 17 5 22 2 6 -3 10 3 10 14 0 27 20 27 21 1 2 -33 4 -38 12 -46 4 -4
7 3 7 15 0 14 7 25 20 28 11 3 20 12 20 20 0 8 8 13 18 12 28 -2 46 1 39 7 -5
5 12 33 21 34 2 0 1 -13 -3 -30z m4035 -59 l0 -38 -57 -2 c-36 -1 -59 3 -65
11 -6 9 -8 7 -6 -7 3 -17 -3 -20 -37 -23 -48 -3 -61 5 -70 41 l-7 27 57 0 c31
0 71 6 88 14 34 16 77 24 90 18 4 -2 7 -20 7 -41z m571 -94 c48 -22 57 -31 57
-53 0 -14 4 -29 10 -33 7 -4 -3 -47 -27 -121 -21 -63 -48 -148 -61 -188 -20
-66 -23 -71 -36 -55 -7 10 -14 24 -14 31 0 6 -9 12 -20 12 -23 0 -27 28 -5 36
22 9 18 23 -10 34 -29 11 -34 20 -6 13 17 -4 18 0 14 44 -6 55 -11 63 -23 43
-8 -13 -10 -12 -10 3 0 9 5 17 10 17 13 0 13 21 -1 40 -8 11 -12 12 -16 3 -10
-27 -18 -11 -18 39 0 32 -5 53 -12 56 -7 2 -13 17 -13 33 0 23 -5 29 -22 30
-22 2 -22 2 -2 6 15 3 20 10 17 22 -8 30 116 22 188 -12z m-2125 -164 c-4 -10
-7 -19 -7 -20 0 -2 -11 -14 -25 -28 -18 -18 -44 -29 -82 -36 -32 -6 -79 -17
-106 -25 -27 -8 -74 -14 -103 -14 -47 0 -53 2 -53 21 0 43 18 59 68 59 26 0
70 7 97 16 62 19 209 52 214 48 2 -2 0 -11 -3 -21z m882 -18 l3 -38 -115 6
c-63 3 -120 8 -125 11 -6 4 -6 16 0 34 l10 29 112 -3 112 -2 3 -37z m-2898
-62 c11 3 26 -3 36 -14 9 -10 25 -19 36 -19 10 0 18 -7 18 -15 0 -8 -9 -15
-19 -15 -11 0 -23 -4 -26 -10 -4 -6 7 -10 24 -10 26 0 31 4 31 24 0 19 4 22
25 18 14 -2 25 -10 25 -18 0 -7 -6 -11 -14 -8 -9 3 -18 -7 -27 -28 -7 -18 -14
-36 -16 -40 -2 -3 5 -4 16 -1 15 4 21 1 21 -11 0 -21 16 -20 24 2 3 9 9 22 12
29 3 7 -2 10 -15 6 -15 -4 -21 -1 -21 12 0 13 6 16 25 13 13 -3 26 0 28 6 3 8
8 7 18 -1 10 -10 10 -16 1 -25 -18 -18 -14 -30 8 -23 18 6 18 4 9 -25 -8 -23
-8 -34 1 -45 10 -13 8 -15 -12 -15 -21 0 -25 -5 -26 -35 -1 -26 2 -33 13 -28
8 3 15 14 15 24 0 10 5 19 10 19 13 0 13 -7 -5 -55 -19 -53 -19 -100 1 -141
10 -22 14 -46 10 -66 -3 -18 -7 -41 -9 -51 -1 -10 -9 -22 -17 -27 -13 -9 -13
-10 0 -10 13 0 13 -1 0 -10 -10 -6 -11 -10 -2 -10 22 0 12 -20 -10 -20 -18 0
-20 -2 -9 -9 8 -5 20 -7 26 -5 7 3 15 -2 18 -10 4 -9 17 -16 29 -16 19 0 20
-2 8 -10 -12 -7 -8 -10 15 -11 l30 -1 -30 -13 c-27 -13 -27 -14 -7 -15 12 0
22 -4 22 -9 0 -5 -10 -12 -22 -14 -20 -4 -20 -4 4 -6 37 -1 47 -21 11 -21 -28
-1 -28 -1 -5 -13 12 -7 19 -17 15 -21 -4 -5 8 -6 27 -2 25 4 31 3 20 -4 -8 -5
-27 -10 -42 -10 -16 0 -28 -4 -28 -10 0 -5 11 -10 24 -10 14 0 28 -4 31 -10 3
-5 -3 -10 -14 -10 -10 0 -31 -13 -44 -30 -26 -30 -39 -38 -34 -21 2 10 -1 11
-38 11 -31 0 -33 -20 -2 -21 18 -1 17 -2 -8 -11 -16 -5 -41 -10 -55 -11 -16
-1 -25 -8 -24 -18 1 -11 -5 -16 -15 -14 -9 2 -20 4 -24 4 -5 1 -5 6 -2 11 12
19 -19 10 -43 -12 -20 -18 -24 -19 -19 -5 7 19 6 20 -17 11 -9 -3 -16 -12 -16
-19 0 -14 -52 -27 -75 -18 -11 4 -18 -1 -22 -16 -4 -15 -14 -21 -37 -22 l-31
-1 30 -8 c30 -7 30 -7 5 -13 -14 -3 -51 -9 -82 -12 -38 -4 -58 -11 -58 -20 0
-16 -22 -25 -61 -25 -16 0 -29 -4 -29 -10 0 -5 -11 -10 -25 -10 -14 0 -25 -4
-25 -10 0 -5 -7 -10 -15 -10 -8 0 -15 -6 -15 -14 0 -16 -53 -26 -72 -14 -10 6
-9 11 5 19 14 8 16 14 6 25 -9 11 -7 14 11 14 13 0 21 3 17 6 -3 4 -18 3 -32
0 -20 -5 -25 -11 -20 -25 3 -12 0 -21 -11 -25 -10 -4 -14 -13 -11 -26 3 -13 0
-20 -9 -20 -8 0 -14 10 -14 25 0 14 -4 25 -10 25 -5 0 -10 7 -10 16 0 8 -7 22
-15 30 -10 10 -13 24 -9 41 6 22 4 25 -10 20 -20 -8 -36 27 -36 76 0 17 -8 40
-19 51 -21 24 -38 96 -21 96 5 0 10 -7 10 -15 0 -8 5 -15 10 -15 6 0 10 7 10
15 0 8 -4 15 -10 15 -5 0 -10 7 -10 15 0 18 -16 20 -24 3 -4 -7 -4 16 -1 51 5
60 4 64 -11 45 -14 -18 -15 -16 -10 29 3 26 2 47 -3 47 -5 0 -14 21 -20 48 -7
26 -16 54 -21 63 -5 9 -12 36 -15 60 -4 24 -12 74 -19 110 -7 37 -9 75 -5 85
12 31 106 120 146 139 21 9 63 29 93 44 30 14 58 26 62 26 3 0 10 3 14 8 4 4
16 7 26 7 10 0 18 5 18 10 0 6 12 10 27 10 15 0 59 9 99 20 40 11 111 22 158
23 47 2 88 6 91 9 4 3 27 -1 51 -9 25 -8 53 -13 64 -10z m4243 0 c-9 -3 -7
-10 6 -25 19 -19 47 -88 58 -138 2 -14 13 -44 24 -67 10 -24 19 -54 19 -68 0
-14 3 -25 8 -25 12 0 33 -53 24 -62 -5 -5 -4 -27 1 -48 9 -32 8 -42 -5 -57 -8
-10 -19 -31 -22 -48 -4 -16 -12 -33 -18 -36 -7 -4 -6 -13 1 -27 9 -17 8 -26
-6 -42 -32 -38 -51 -43 -75 -20 -12 11 -18 20 -13 20 5 0 -1 7 -13 16 -15 10
-20 20 -14 27 12 18 7 55 -11 75 -9 9 -21 36 -26 60 -6 23 -16 61 -22 85 -16
59 -12 143 12 244 26 108 55 171 72 153 9 -10 9 -14 0 -17z m-1472 -242 c4 -1
9 -10 12 -21 4 -16 14 -20 51 -20 l46 0 -4 -37 c-3 -44 -17 -52 -45 -24 -18
18 -34 20 -169 22 -82 1 -154 -1 -161 -5 -6 -4 -2 12 8 36 l18 43 99 5 c86 5
109 5 145 1z m-3632 -370 c7 -5 14 -21 14 -35 0 -15 3 -29 8 -32 5 -3 9 -18 9
-34 0 -16 5 -32 10 -35 6 -3 9 -25 9 -48 -1 -23 -3 -33 -6 -22 -10 44 -15 51
-23 30 -4 -11 -3 -25 2 -32 5 -6 13 -44 17 -85 6 -58 5 -77 -7 -93 -13 -19
-14 -19 -10 7 7 38 -4 53 -29 39 -15 -8 -19 -17 -15 -38 6 -37 -13 -19 -22 20
-6 24 -3 30 14 34 11 3 20 9 20 14 0 5 7 6 15 3 9 -4 15 0 15 10 0 19 -4 20
-30 4 -15 -10 -22 -10 -32 0 -10 10 -9 16 5 29 13 13 20 15 29 5 16 -16 33
-16 20 1 -16 21 -20 112 -5 133 15 21 17 44 3 44 -5 0 -10 -6 -10 -14 0 -8 -4
-17 -9 -20 -4 -3 -5 13 -1 35 6 30 4 42 -6 46 -8 3 -14 14 -14 24 0 21 8 23
29 10z m4145 -64 c3 -17 4 -32 2 -34 -6 -6 -116 -11 -381 -18 -256 -7 -320
-14 -390 -45 -61 -27 -83 -32 -90 -20 -3 5 -32 10 -64 10 -32 0 -60 3 -64 6
-3 4 0 19 8 34 8 15 11 30 8 34 -4 3 7 6 24 6 25 0 34 -6 47 -35 19 -40 29
-45 24 -13 -3 18 9 26 82 56 77 32 97 36 210 42 69 3 227 7 351 7 l227 1 6
-31z m1832 -203 c10 -30 9 -34 -4 -29 -12 4 -12 1 2 -20 10 -15 15 -32 12 -38
-2 -7 -5 -4 -5 6 -1 19 -45 25 -56 7 -3 -5 -3 -10 2 -10 4 0 15 -13 24 -29 12
-21 15 -40 9 -77 -5 -30 -4 -51 2 -55 11 -7 2 -145 -14 -199 -19 -68 -18 -66
-29 -50 -8 11 -9 8 -5 -12 3 -15 2 -29 -3 -32 -5 -3 -12 -23 -16 -43 -4 -21
-11 -44 -17 -50 -6 -7 -7 -13 -3 -13 4 0 -4 -13 -17 -29 -12 -16 -34 -44 -48
-62 -33 -44 -110 -119 -121 -119 -15 0 -10 22 9 37 13 11 13 13 2 10 -8 -2
-20 -13 -25 -24 -6 -11 -15 -18 -22 -16 -8 3 -5 11 8 24 10 10 19 30 19 43 0
16 5 23 17 22 11 -1 22 16 37 57 11 31 27 57 33 57 7 0 13 5 13 10 0 6 -7 10
-15 10 -8 0 -15 5 -15 10 0 6 6 10 13 10 22 0 58 45 51 63 -4 12 -1 17 11 17
14 0 16 6 11 36 -5 22 -3 41 5 50 8 9 10 42 7 99 -3 47 -1 88 3 91 5 3 9 29 9
57 0 29 3 69 6 90 6 31 11 37 30 37 13 0 24 5 24 11 0 5 -4 7 -10 4 -5 -3 -10
1 -10 9 0 9 5 16 10 16 6 0 10 6 9 13 -4 21 13 47 30 47 10 0 20 -14 27 -36z
m-2791 -155 c6 -4 23 -10 39 -13 16 -3 49 -21 74 -41 30 -23 52 -33 64 -29 10
3 18 0 18 -6 0 -7 6 -5 16 4 8 9 24 16 34 16 17 0 37 6 95 31 26 11 307 36
496 45 l146 7 7 -33 c3 -19 3 -37 -1 -40 -5 -4 -91 -13 -193 -19 -210 -14
-376 -33 -387 -46 -5 -4 6 -5 24 -2 18 4 35 2 38 -2 2 -5 21 -7 40 -4 19 3 35
0 35 -5 0 -20 291 -35 321 -16 7 4 14 3 16 -3 3 -8 14 -8 36 -2 21 6 33 5 38
-2 4 -8 13 -7 28 2 17 11 25 11 41 1 12 -7 20 -8 20 -2 0 5 18 10 39 10 22 0
41 4 43 10 2 5 28 12 59 14 64 5 99 22 99 48 0 10 5 18 10 18 6 0 10 -4 10
-10 0 -5 7 -10 15 -10 8 0 15 4 15 8 0 10 60 32 87 32 12 0 23 6 26 13 4 10 7
10 18 0 11 -11 10 -13 -4 -13 -9 0 -17 -4 -17 -9 0 -11 59 -26 67 -17 4 3 -1
6 -10 6 -9 0 -17 3 -17 8 0 4 46 7 103 7 56 0 83 -1 60 -3 l-42 -3 1 -42 c1
-23 3 -34 6 -24 2 11 13 17 33 17 21 0 32 6 39 23 6 16 9 17 9 5 1 -9 -4 -20
-10 -23 -6 -4 -7 -19 -4 -37 5 -21 2 -35 -11 -49 -17 -18 -17 -20 1 -33 17
-12 17 -13 1 -19 -10 -4 -15 -11 -12 -16 8 -12 -20 -22 -39 -15 -8 4 -15 2
-15 -2 0 -11 -80 -11 -97 -1 -6 4 -15 3 -18 -3 -4 -6 -15 -8 -26 -5 -21 7 -25
-5 -8 -22 17 -17 -7 -53 -36 -53 -13 0 -27 5 -30 10 -3 6 -24 10 -46 10 -31 0
-39 -4 -39 -19 0 -10 -8 -25 -17 -32 -14 -12 -16 -12 -11 2 3 9 2 22 -3 30 -8
12 -10 12 -19 -1 -9 -13 -11 -13 -19 0 -12 18 -23 8 -26 -22 -4 -37 -4 -38
-16 -38 -8 0 -7 5 2 16 19 24 -9 38 -38 19 -29 -20 -33 -19 -33 7 0 20 -1 20
-18 5 -10 -10 -28 -17 -40 -17 -12 0 -22 -4 -22 -10 0 -5 -18 -10 -40 -10 -22
0 -40 5 -40 10 0 6 -16 10 -36 10 -31 0 -35 -2 -24 -15 10 -12 10 -15 -3 -15
-11 0 -17 -12 -20 -37 -4 -35 -4 -35 -3 5 1 42 1 42 -34 42 l-35 0 4 -47 c2
-27 0 -45 -4 -41 -5 4 -8 20 -9 34 -1 35 -28 53 -51 34 -10 -8 -34 -13 -61
-11 -26 1 -44 -2 -44 -8 0 -6 18 -11 40 -11 22 0 40 -5 40 -11 0 -7 -17 -10
-47 -7 -34 2 -52 -1 -63 -13 -23 -24 -36 -52 -35 -74 0 -11 -9 -28 -20 -38
-14 -13 -16 -20 -7 -26 16 -10 -85 -42 -123 -39 -16 2 -33 7 -36 11 -4 5 -86
10 -182 11 l-177 3 6 -24 c6 -21 4 -23 -18 -18 -13 3 -37 1 -53 -5 l-30 -11
25 -20 c14 -11 21 -19 15 -18 -35 5 -56 -2 -53 -18 2 -10 9 -18 16 -17 6 1 23
2 37 3 19 1 25 6 25 25 0 17 7 26 26 30 29 8 39 3 30 -12 -3 -6 -16 -8 -29 -5
-21 5 -21 5 -3 -9 19 -15 19 -16 -2 -22 -12 -4 -22 -14 -22 -22 0 -18 -80 -20
-80 -1 0 6 -5 4 -11 -6 -7 -12 -17 -16 -30 -12 -11 4 -27 1 -36 -7 -14 -11
-15 -10 -8 12 7 22 5 22 -22 -8 -17 -19 -33 -28 -38 -23 -11 9 -96 -75 -86
-85 3 -3 -3 -2 -13 2 -12 5 -22 2 -28 -9 -5 -10 -18 -17 -29 -17 -11 0 -27 -7
-35 -15 -9 -8 -26 -15 -39 -15 -19 0 -23 -4 -18 -17 4 -9 2 -14 -3 -10 -22 13
-132 -18 -207 -60 -32 -17 -110 -23 -146 -10 -15 5 -27 4 -31 -3 -9 -15 -72
-23 -90 -11 -8 5 -14 24 -15 42 0 33 -1 33 -69 46 -76 14 -94 22 -50 24 16 1
56 3 89 5 33 3 98 5 145 6 66 1 77 3 50 9 -24 6 -14 7 30 3 55 -3 72 0 112 21
25 13 65 28 89 31 38 6 40 8 19 16 -12 5 -31 6 -40 3 -10 -3 -39 -6 -65 -7
-35 0 -50 4 -57 16 -5 10 -17 15 -26 12 -9 -3 -33 -7 -52 -8 -19 -1 -40 -9
-47 -18 -8 -10 -12 -11 -13 -2 0 6 -5 12 -11 12 -7 0 -9 -9 -6 -21 5 -19 2
-21 -26 -16 -18 3 -26 3 -19 0 6 -2 12 -9 12 -15 0 -6 -19 -8 -49 -5 -33 4
-51 1 -54 -6 -2 -8 -9 -6 -21 6 -12 11 -23 14 -34 8 -9 -4 -22 -6 -29 -4 -6 2
-25 -3 -42 -11 -48 -25 -77 -20 -105 17 -15 19 -26 39 -26 45 0 7 -4 12 -8 12
-9 0 -34 61 -28 68 2 2 7 -6 11 -17 8 -27 50 -37 92 -22 44 16 124 23 299 26
77 1 147 6 155 10 8 5 40 8 71 7 34 -1 58 2 58 8 0 5 11 10 25 10 14 0 25 5
25 11 0 5 5 7 10 4 7 -4 2 -14 -11 -26 l-22 -19 54 0 c49 1 52 2 35 15 -14 10
-17 21 -12 42 5 21 4 24 -4 13 -9 -13 -11 -13 -20 0 -19 28 -23 63 -10 83 10
17 10 19 -4 14 -9 -4 -16 -2 -16 4 0 6 -5 7 -11 3 -7 -4 -10 -1 -7 7 3 8 11
14 18 14 7 0 15 14 17 30 5 41 31 95 59 124 13 13 22 27 19 31 -3 4 4 10 15
13 11 3 28 19 37 36 10 17 26 34 36 37 12 4 17 12 14 24 -3 13 0 17 9 13 8 -3
14 1 14 11 0 9 5 16 10 16 6 0 10 6 10 14 0 8 14 30 31 48 16 18 33 45 36 60
3 15 14 30 24 33 11 4 19 15 19 26 0 11 7 19 16 19 8 0 12 5 9 10 -3 6 -1 10
4 10 6 0 11 7 11 15 0 9 6 12 15 9 8 -4 15 -1 15 4 0 18 115 27 135 11z m1926
-122 c9 -89 9 -123 -1 -184 0 -6 -20 -3 -45 7 l-26 10 27 23 c24 21 25 25 13
47 -18 31 -35 50 -46 50 -4 0 -14 14 -22 31 -10 23 -10 34 -2 42 8 8 11 6 11
-7 0 -16 1 -16 30 1 24 14 30 24 30 50 0 18 -4 33 -10 33 -5 0 -10 -16 -10
-35 0 -19 -4 -35 -10 -35 -12 0 -12 7 -4 48 6 29 30 46 46 32 5 -3 13 -54 19
-113z m-3690 -407 c5 0 9 -4 9 -10 0 -5 -17 -10 -39 -10 l-38 0 -7 -85 c-4
-47 -5 -89 -2 -94 4 -5 -2 -7 -13 -4 -26 7 -38 -17 -17 -33 34 -25 12 -31 -84
-26 -22 2 -23 3 -8 18 10 10 21 13 30 8 23 -15 39 -13 36 4 -2 9 -12 17 -23
17 -14 0 -21 8 -23 28 -2 15 1 27 7 27 6 0 11 9 11 20 0 11 -4 20 -10 20 -5 0
-10 -9 -10 -19 0 -10 -7 -21 -15 -25 -8 -3 -12 -12 -9 -19 3 -8 -2 -17 -10
-20 -11 -4 -13 -1 -9 11 3 9 10 22 14 27 4 6 5 37 2 68 -6 56 -17 74 -26 40
-4 -17 -5 -17 -6 0 -1 25 45 40 101 33 32 -5 50 -2 60 7 18 18 40 26 56 21 8
-2 18 -4 23 -4z m4479 -37 c0 -10 3 -29 5 -43 4 -17 3 -19 -2 -8 -6 13 -12 15
-23 8 -13 -9 -13 -11 0 -20 13 -9 13 -11 0 -20 -13 -8 -13 -10 2 -10 20 0 17
-33 -6 -56 -9 -8 -16 -22 -16 -30 0 -8 -4 -14 -10 -14 -5 0 -10 -5 -10 -10 0
-15 -80 -92 -118 -113 -18 -10 -39 -16 -46 -14 -8 3 -19 0 -25 -6 -13 -13 -19
-8 -30 31 -7 23 -6 34 5 43 19 15 18 33 -1 25 -8 -3 -15 0 -15 7 1 14 36 41
68 51 12 4 22 12 22 17 0 5 6 9 13 9 7 0 31 18 54 41 25 24 47 38 54 33 7 -4
9 -3 5 4 -3 6 7 25 24 42 16 17 30 35 30 40 0 6 5 10 10 10 6 0 10 -8 10 -17z
m-1199 -216 c1 -18 3 -24 6 -14 4 14 11 16 41 11 48 -9 53 -14 15 -14 -27 0
-30 -3 -25 -26 2 -14 11 -28 18 -31 25 -9 15 -33 -13 -33 -26 0 -26 -1 -10
-17 15 -16 18 -16 36 1 15 13 20 14 24 4 3 -9 7 -7 13 6 5 15 2 23 -14 34 -22
15 -31 52 -12 52 6 0 19 -6 30 -12 15 -10 24 -10 38 -2 14 9 22 8 37 -2 14
-10 15 -14 4 -14 -19 0 -46 -43 -30 -48 23 -8 10 -29 -31 -46 -33 -15 -45 -16
-60 -7 -14 9 -24 9 -40 0 -25 -14 -98 -19 -98 -6 0 4 -4 5 -10 2 -5 -3 -10 1
-10 9 0 9 6 16 14 16 7 0 16 10 20 23 9 33 7 87 -3 87 -10 0 -2 48 10 56 5 3
9 -9 9 -25 0 -17 5 -31 11 -31 6 0 10 10 9 23 -3 37 -1 49 10 42 6 -3 11 -21
11 -38z m1195 -12 c10 -10 11 -15 3 -15 -8 0 -8 -4 2 -16 10 -13 10 -17 -1
-24 -11 -7 -11 -11 1 -22 8 -8 21 -17 29 -21 11 -4 10 -6 -4 -6 -14 -1 -17 -6
-12 -26 4 -14 3 -37 0 -52 -7 -25 -8 -25 -22 -7 -13 18 -14 17 -9 -9 3 -20 -1
-30 -15 -38 -11 -6 -17 -13 -14 -16 3 -3 -13 -19 -35 -35 -32 -23 -47 -28 -70
-23 -19 4 -29 13 -29 24 0 10 -12 30 -26 46 -28 30 -30 68 -4 99 21 25 88 58
102 50 6 -4 8 -3 5 3 -6 9 26 57 35 53 13 -5 38 16 38 31 0 23 7 24 26 4z
m-1786 -5 c-12 -8 -11 -10 8 -10 12 0 25 0 28 1 4 0 10 -5 14 -11 5 -8 14 -5
29 11 12 13 21 17 21 10 0 -8 6 -11 15 -7 8 3 15 0 15 -7 0 -7 -8 -13 -17 -14
-10 -1 -81 -17 -158 -37 -77 -20 -198 -47 -270 -61 -71 -14 -164 -33 -205 -42
-58 -12 -154 -16 -420 -19 l-345 -4 61 19 c33 10 78 26 100 36 21 9 48 21 59
25 11 5 128 11 260 13 132 3 260 9 285 15 25 6 132 28 238 49 162 31 197 36
223 26 26 -10 29 -10 19 3 -11 12 -7 14 21 14 26 0 30 -3 19 -10z m2011 -70
c6 0 7 -9 4 -20 -4 -11 -2 -20 4 -20 6 0 11 -11 11 -25 0 -14 -4 -25 -9 -25
-10 0 -6 -47 9 -115 5 -22 12 -149 15 -282 3 -133 8 -249 11 -258 4 -8 1 -22
-6 -30 -8 -10 -9 -20 -3 -27 12 -18 5 -770 -8 -782 -3 -3 -4 -47 -3 -98 1 -60
-2 -96 -10 -100 -8 -6 -7 -8 2 -8 7 0 12 -13 12 -30 0 -17 -5 -30 -12 -30 -10
0 -10 -2 -1 -8 8 -5 12 -36 12 -86 0 -66 -2 -77 -16 -72 -14 6 -14 3 1 -19 14
-22 15 -28 3 -45 -11 -16 -12 -33 -4 -82 7 -46 6 -77 -3 -113 -15 -58 -21
-332 -8 -357 5 -10 14 -18 21 -18 7 0 20 -9 30 -20 16 -20 16 -21 0 -28 -31
-12 -401 -8 -414 5 -9 9 -2 22 30 53 42 41 51 65 29 73 -10 3 -8 10 5 25 15
16 18 33 15 75 -1 31 0 53 5 50 17 -10 25 9 15 37 -7 22 -7 34 1 44 7 8 9 25
5 40 -4 17 -2 26 5 26 8 0 10 11 5 35 -4 21 -2 35 4 35 5 0 12 26 15 58 3 31
8 68 11 82 3 14 10 47 16 74 5 28 15 53 21 57 6 3 12 53 15 115 6 159 6 156
26 138 23 -22 28 -8 33 97 3 50 8 96 12 102 3 5 7 49 9 96 2 47 6 97 9 110 6
21 4 23 -10 11 -14 -11 -15 -9 -13 16 5 71 -2 106 -19 102 -9 -2 -18 -9 -21
-17 -3 -8 0 -11 7 -7 6 4 11 2 11 -4 0 -17 -20 -50 -30 -50 -11 0 -83 61 -175
149 -81 77 -205 185 -230 199 -26 14 -14 26 83 89 80 51 89 55 132 49 67 -8
111 -17 176 -35 22 -6 42 -11 47 -11 10 0 8 109 -5 220 -14 123 -18 297 -8
324 4 12 14 41 21 66 20 67 93 208 97 188 2 -10 8 -18 13 -18z m-658 -213
c-10 -26 -21 -47 -25 -47 -4 0 -8 -8 -8 -17 0 -10 -9 -33 -20 -51 -11 -18 -20
-39 -20 -47 0 -7 -9 -17 -20 -20 -11 -3 -20 -11 -20 -16 0 -5 -9 0 -21 12 -29
29 -36 18 -38 -66 -1 -23 -4 -27 -11 -15 -9 13 -10 13 -11 0 -1 -8 -1 -18 -1
-21 1 -3 -5 -6 -13 -6 -8 0 -12 4 -9 9 6 10 1 10 -20 2 -9 -3 -13 -10 -10 -15
3 -5 -2 -9 -10 -9 -9 0 -16 -7 -16 -15 0 -8 -3 -14 -7 -13 -5 1 -19 -2 -32 -6
-15 -5 -26 -4 -30 3 -4 6 -18 12 -31 13 -21 3 -25 -1 -23 -19 2 -15 -3 -23
-12 -23 -9 0 -18 -13 -21 -30 -4 -16 -11 -30 -16 -30 -5 0 -6 9 -3 20 5 17 2
20 -25 20 -27 0 -30 -3 -25 -20 4 -13 2 -21 -7 -22 -15 -2 -44 -4 -71 -7 -10
0 -16 -4 -13 -9 2 -4 -13 -6 -35 -4 -38 4 -39 5 -41 46 l-1 41 -4 -37 c-2 -21
-8 -38 -13 -38 -31 0 -20 76 13 86 35 10 131 58 145 71 7 7 20 9 29 6 9 -4 21
1 29 12 8 11 25 18 45 17 23 0 33 4 36 19 3 11 11 18 18 15 6 -2 18 0 26 5 11
6 11 11 1 21 -8 8 -12 8 -12 1 0 -6 -9 -9 -20 -6 -11 3 -37 -7 -64 -25 -25
-17 -63 -34 -83 -38 -21 -4 -44 -11 -50 -16 -7 -6 -33 -8 -58 -6 -44 3 -62 -6
-27 -15 9 -2 1 -4 -18 -3 -41 1 -71 22 -45 32 11 5 13 10 5 19 -12 15 7 25 45
25 12 0 28 6 34 14 7 8 27 18 44 21 18 4 52 18 76 31 52 29 55 29 77 7 17 -17
17 -17 12 5 -5 18 -2 22 17 22 12 0 28 7 35 15 7 8 16 13 20 10 4 -3 13 2 20
10 7 8 25 15 41 15 15 0 34 6 41 13 7 8 24 20 37 27 21 11 23 10 18 -4 -4 -9
-2 -16 3 -16 6 0 10 8 10 18 1 16 1 16 14 0 17 -23 26 -23 26 1 0 15 31 54 34
43 1 -2 9 0 18 3 10 4 15 11 12 16 -6 10 9 12 19 2 4 -3 -5 -16 -18 -29 -14
-13 -25 -28 -25 -34 0 -6 -4 -8 -10 -5 -5 3 -10 -1 -10 -10 0 -14 2 -14 25 1
14 9 25 20 25 25 0 5 7 9 15 9 8 0 15 6 15 13 0 8 4 7 10 -3 8 -12 10 -11 10
7 0 18 29 48 38 39 1 -2 -6 -24 -15 -49z m-3508 -41 c19 -8 35 -21 35 -28 0
-13 39 -36 193 -115 66 -34 69 -35 210 -37 104 -2 159 -8 204 -22 54 -16 69
-17 108 -6 31 8 140 12 338 12 299 0 469 11 567 35 30 8 87 19 125 25 39 6
111 19 160 29 50 11 117 25 150 32 33 6 70 20 83 30 28 21 99 45 164 54 47 6
47 6 42 -21 -7 -40 -8 -40 -74 -53 -66 -13 -125 -43 -140 -71 -6 -11 -27 -20
-62 -24 -56 -8 -108 -17 -355 -65 -262 -52 -358 -60 -763 -63 -353 -3 -377 -2
-410 16 -29 16 -61 20 -182 23 -81 1 -159 8 -175 14 -55 20 -173 93 -178 110
-3 9 -28 27 -56 38 -49 21 -50 23 -43 54 11 54 10 53 59 33z m163 -482 c140
-28 236 -54 294 -78 l87 -36 358 -6 c390 -7 466 -2 633 43 52 14 118 29 147
33 28 5 55 10 60 13 4 3 107 17 228 32 121 14 233 33 249 41 35 17 37 15 39
-28 3 -51 -33 -62 -286 -92 -233 -28 -345 -47 -417 -71 -164 -54 -460 -75
-825 -57 -190 9 -204 11 -275 41 -41 17 -102 36 -135 42 -160 28 -363 82 -412
111 -58 32 -71 57 -54 102 l11 27 46 -37 c43 -36 55 -39 252 -80z m2322 -204
c-37 -36 -80 -88 -94 -117 -24 -45 -34 -54 -74 -67 -68 -22 -293 -66 -392 -76
-47 -5 -128 -14 -180 -19 -52 -6 -131 -20 -175 -32 -44 -11 -118 -27 -165 -34
-594 -94 -577 -93 -935 -24 -82 16 -184 40 -225 54 -41 14 -106 34 -145 45
-71 21 -311 122 -353 148 -19 12 -21 20 -16 51 4 20 8 37 9 39 1 1 82 -31 179
-73 97 -41 189 -78 204 -81 15 -4 52 -18 82 -31 30 -14 80 -29 110 -33 30 -5
143 -25 250 -45 188 -36 201 -37 360 -32 107 4 219 14 320 31 240 40 384 68
396 77 6 5 94 18 195 29 245 27 320 38 409 61 98 26 111 36 133 97 14 38 36
67 85 114 l67 62 11 -40 12 -39 -68 -65z m87 -356 c-16 -69 -97 -125 -252
-173 -38 -12 -77 -26 -87 -31 -72 -39 -354 -92 -593 -110 -169 -14 -266 -27
-338 -45 -34 -9 -141 -23 -237 -30 -96 -8 -211 -21 -255 -29 -116 -23 -171
-20 -387 19 -263 49 -401 82 -478 115 -36 15 -96 38 -135 50 -66 22 -229 103
-240 119 -6 10 17 71 27 71 4 0 47 -20 95 -44 160 -79 217 -104 293 -129 76
-24 103 -30 310 -67 63 -12 147 -27 185 -35 39 -7 121 -22 183 -31 108 -17
116 -17 200 0 48 10 121 22 162 27 41 5 118 13 170 20 52 6 145 21 206 34 61
13 191 31 290 40 186 16 277 28 354 46 60 14 290 79 315 89 77 31 136 65 170
100 21 22 42 40 46 40 3 0 1 -21 -4 -46z m-2884 -324 c26 -16 50 -37 54 -45 3
-9 -2 -42 -11 -74 -19 -69 -20 -89 -3 -87 6 0 84 -23 172 -51 280 -92 354
-113 448 -128 105 -17 304 -19 440 -6 51 6 146 15 212 21 66 7 170 18 230 26
61 7 209 25 330 39 396 46 536 70 655 116 30 11 73 27 95 35 21 8 58 26 81 39
l42 25 -19 -39 c-25 -52 -53 -70 -184 -119 -164 -61 -287 -90 -462 -107 -87
-9 -214 -25 -283 -35 -371 -57 -608 -81 -840 -87 -244 -6 -295 -1 -420 36 -36
11 -105 30 -155 42 -133 32 -182 49 -270 93 -44 22 -83 42 -87 44 -5 2 -8 -4
-8 -13 0 -13 -2 -14 -14 -3 -8 7 -10 15 -5 16 5 2 9 10 9 18 0 9 -4 13 -9 10
-10 -7 -23 19 -14 28 4 3 12 1 20 -6 10 -8 12 -8 8 4 -6 16 -65 63 -65 52 0
-4 7 -12 17 -19 16 -12 9 -40 -8 -30 -5 4 -9 1 -9 -5 0 -6 7 -13 15 -16 8 -4
15 -11 15 -17 0 -7 -11 0 -25 14 -21 21 -27 38 -32 97 -6 68 10 162 26 162 4
0 28 -13 54 -30z m3464 -1021 c46 1 83 -2 83 -6 0 -4 10 -8 23 -9 167 -8 295
-18 307 -25 10 -5 -2 -9 -35 -9 -27 -1 -70 -3 -95 -5 -25 -2 -146 -3 -270 -3
-124 1 -340 1 -480 0 -140 -1 -249 1 -242 4 6 3 10 10 6 15 -3 5 16 9 43 9 49
1 127 7 197 15 22 2 46 -1 53 -7 9 -8 13 -7 13 1 0 9 5 8 15 -2 16 -17 144
-23 173 -8 35 18 107 38 116 33 5 -3 47 -4 93 -3z"/>
</g>
</svg>
